<?xml version="1.0" encoding="UTF-8"?>
<svg xmlns="http://www.w3.org/2000/svg" xmlns:xlink="http://www.w3.org/1999/xlink" width="40px" height="40px" viewBox="0 0 40 40" version="1.1">
<g id="surface1">
<path style=" stroke:none;fill-rule:nonzero;fill:rgb(0%,0%,0%);fill-opacity:1;" d="M 17.34375 0.148438 C 15.273438 0.703125 13.984375 2.820312 14.492188 4.804688 C 14.875 6.3125 15.953125 7.390625 17.460938 7.773438 C 19.476562 8.289062 21.601562 6.9375 22.148438 4.804688 C 22.664062 2.789062 21.3125 0.640625 19.210938 0.125 C 18.5625 -0.03125 17.984375 -0.03125 17.34375 0.148438 Z M 17.34375 0.148438 "/>
<path style=" stroke:none;fill-rule:nonzero;fill:rgb(0%,0%,0%);fill-opacity:1;" d="M 17.851562 9.578125 C 16.679688 9.828125 15.914062 10.335938 15.351562 11.242188 C 14.875 12.015625 14.890625 11.742188 14.859375 18.359375 C 14.84375 22.453125 14.867188 24.578125 14.921875 24.921875 C 15.15625 26.328125 16.257812 27.484375 17.632812 27.773438 C 18.0625 27.867188 19.046875 27.890625 22.65625 27.890625 L 27.148438 27.890625 L 29.492188 32.523438 C 31.273438 36.046875 31.914062 37.234375 32.171875 37.507812 C 33.023438 38.4375 34.421875 38.492188 35.351562 37.648438 C 35.890625 37.148438 36.117188 36.632812 36.125 35.90625 L 36.125 35.359375 L 34.851562 32.859375 C 30.109375 23.507812 30.328125 23.898438 29.570312 23.492188 C 29.265625 23.320312 29.171875 23.320312 25.53125 23.296875 L 21.796875 23.273438 L 21.796875 21.71875 L 24.789062 21.71875 C 26.648438 21.71875 27.882812 21.6875 28.070312 21.632812 C 28.234375 21.585938 28.507812 21.421875 28.679688 21.273438 C 29.671875 20.375 29.492188 18.976562 28.304688 18.390625 C 28.03125 18.25 27.765625 18.242188 24.90625 18.21875 L 21.796875 18.195312 L 21.796875 15.515625 C 21.796875 14.015625 21.757812 12.648438 21.71875 12.414062 C 21.523438 11.40625 20.734375 10.304688 19.90625 9.90625 C 19.265625 9.59375 18.421875 9.460938 17.851562 9.578125 Z M 17.851562 9.578125 "/>
<path style=" stroke:none;fill-rule:nonzero;fill:rgb(0%,0%,0%);fill-opacity:1;" d="M 11.960938 16.335938 C 11.1875 16.609375 9.929688 17.25 9.21875 17.734375 C 4.929688 20.671875 2.984375 25.84375 4.257812 30.882812 C 4.921875 33.492188 6.5625 35.914062 8.789062 37.585938 C 11.25 39.4375 14.617188 40.3125 17.632812 39.882812 C 21.59375 39.320312 24.882812 37.03125 26.78125 33.523438 L 27.09375 32.945312 L 26.421875 31.585938 L 25.742188 30.234375 L 24.398438 30.234375 L 24.304688 30.5625 C 24.25 30.75 24.070312 31.179688 23.898438 31.523438 C 22.78125 33.859375 20.632812 35.632812 18.179688 36.242188 C 12.835938 37.585938 7.601562 33.703125 7.367188 28.234375 C 7.320312 27.140625 7.421875 26.273438 7.710938 25.3125 C 8.359375 23.132812 9.820312 21.328125 11.84375 20.195312 L 12.5 19.828125 L 12.5 18 C 12.5 16.992188 12.476562 16.171875 12.445312 16.179688 C 12.40625 16.179688 12.195312 16.25 11.960938 16.335938 Z M 11.960938 16.335938 "/>
</g>
</svg>
