<?xml version="1.0" standalone="no"?>
<!DOCTYPE svg PUBLIC "-//W3C//DTD SVG 20010904//EN"
 "http://www.w3.org/TR/2001/REC-SVG-20010904/DTD/svg10.dtd">
<svg version="1.0" xmlns="http://www.w3.org/2000/svg"
 width="512.000000pt" height="512.000000pt" viewBox="0 0 512.000000 512.000000"
 preserveAspectRatio="xMidYMid meet">

<g transform="translate(0.000000,512.000000) scale(0.100000,-0.100000)"
fill="#000000" stroke="none">
<path d="M2050 4005 l0 -1115 -22 5 c-13 3 -313 84 -668 179 l-645 173 -124
309 c-68 170 -126 311 -127 313 -5 6 -357 101 -376 101 -17 0 -18 -40 -18
-693 l0 -693 2243 -602 c1233 -331 2267 -604 2298 -608 246 -29 469 212 429
462 -20 125 -112 250 -222 302 -24 11 -372 108 -772 215 -400 108 -729 197
-730 199 -2 2 -168 545 -370 1208 -202 663 -372 1209 -376 1214 -7 6 -499 145
-517 146 -2 0 -3 -502 -3 -1115z"/>
<path d="M0 270 l0 -270 2560 0 2560 0 0 270 0 270 -2560 0 -2560 0 0 -270z"/>
</g>
</svg>
