<?xml version="1.0" encoding="UTF-8"?>
<svg xmlns="http://www.w3.org/2000/svg" xmlns:xlink="http://www.w3.org/1999/xlink" width="25px" height="25px" viewBox="0 0 25 25" version="1.1">
<g id="surface1">
<path style=" stroke:none;fill-rule:nonzero;fill:rgb(0%,0%,0%);fill-opacity:1;" d="M 1.351562 5.425781 C 0.851562 5.542969 0.390625 5.929688 0.160156 6.421875 C 0.046875 6.671875 0.0234375 6.777344 0.03125 7.128906 C 0.03125 7.910156 -0.4375 7.382812 5.851562 13.679688 C 9.644531 17.480469 11.515625 19.320312 11.664062 19.40625 C 12.023438 19.59375 12.4375 19.664062 12.808594 19.585938 C 12.972656 19.550781 13.210938 19.46875 13.335938 19.40625 C 13.484375 19.320312 15.355469 17.480469 19.148438 13.679688 C 25.4375 7.382812 24.96875 7.910156 24.96875 7.128906 C 24.96875 6.777344 24.953125 6.671875 24.835938 6.410156 C 24.421875 5.511719 23.328125 5.132812 22.4375 5.578125 C 22.308594 5.640625 20.542969 7.375 17.375 10.539062 L 12.5 15.40625 L 7.625 10.539062 C 4.445312 7.359375 2.691406 5.640625 2.5625 5.578125 C 2.191406 5.394531 1.734375 5.335938 1.351562 5.425781 Z M 1.351562 5.425781 "/>
</g>
</svg>
