<?xml version="1.0" encoding="UTF-8"?>
<svg xmlns="http://www.w3.org/2000/svg" xmlns:xlink="http://www.w3.org/1999/xlink" width="40px" height="40px" viewBox="0 0 40 40" version="1.1">
<g id="surface1">
<path style=" stroke:none;fill-rule:nonzero;fill:rgb(0%,0%,0%);fill-opacity:1;" d="M 18.132812 0.078125 C 14.25 0.453125 10.398438 2.039062 7.382812 4.492188 C 6.492188 5.210938 5.085938 6.632812 4.382812 7.515625 C 2.59375 9.757812 1.125 12.789062 0.515625 15.507812 C 0.132812 17.210938 0.046875 18.046875 0.046875 20 C 0.046875 21.953125 0.132812 22.789062 0.515625 24.492188 C 1.132812 27.265625 2.640625 30.34375 4.492188 32.617188 C 5.210938 33.507812 6.632812 34.914062 7.515625 35.617188 C 9.757812 37.40625 12.789062 38.875 15.507812 39.484375 C 17.210938 39.867188 18.046875 39.953125 20 39.953125 C 21.953125 39.953125 22.789062 39.867188 24.492188 39.484375 C 26.53125 39.03125 29.203125 37.890625 30.960938 36.726562 C 34 34.703125 36.335938 32.046875 37.9375 28.789062 C 38.914062 26.796875 39.46875 25.007812 39.820312 22.734375 C 40.007812 21.476562 40.007812 18.523438 39.820312 17.265625 C 39.46875 14.992188 38.914062 13.203125 37.9375 11.210938 C 36.890625 9.085938 35.726562 7.460938 34.046875 5.804688 C 32.398438 4.171875 30.890625 3.101562 28.789062 2.070312 C 26.820312 1.101562 24.992188 0.53125 22.8125 0.195312 C 21.828125 0.046875 19.15625 -0.015625 18.132812 0.078125 Z M 20.679688 11.5625 C 20.96875 11.671875 28.265625 18.953125 28.40625 19.273438 C 28.859375 20.304688 27.804688 21.359375 26.773438 20.90625 C 26.632812 20.84375 25.351562 19.625 23.90625 18.171875 L 21.289062 15.546875 L 21.25 22.375 C 21.210938 29.125 21.210938 29.210938 21.046875 29.421875 C 20.742188 29.835938 20.492188 29.960938 20 29.960938 C 19.507812 29.960938 19.257812 29.835938 18.953125 29.421875 C 18.789062 29.210938 18.789062 29.125 18.75 22.375 L 18.710938 15.546875 L 16.09375 18.171875 C 14.648438 19.625 13.367188 20.84375 13.226562 20.90625 C 12.21875 21.34375 11.179688 20.351562 11.5625 19.320312 C 11.671875 19.046875 18.9375 11.742188 19.257812 11.59375 C 19.539062 11.46875 20.367188 11.453125 20.679688 11.5625 Z M 20.679688 11.5625 "/>
</g>
</svg>
