<?xml version="1.0" encoding="UTF-8"?>
<svg xmlns="http://www.w3.org/2000/svg" xmlns:xlink="http://www.w3.org/1999/xlink" width="40px" height="40px" viewBox="0 0 40 40" version="1.1">
<g id="surface1">
<path style=" stroke:none;fill-rule:nonzero;fill:rgb(0%,0%,0%);fill-opacity:1;" d="M 25.132812 0.0859375 C 24.289062 0.289062 23.484375 0.960938 23.09375 1.796875 L 22.851562 2.304688 L 22.828125 4.78125 L 22.804688 7.265625 L 25.15625 7.265625 L 25.15625 2.796875 L 25.609375 2.34375 L 30.171875 2.34375 L 30.625 2.796875 L 30.625 7.265625 L 32.976562 7.265625 L 32.953125 4.78125 L 32.929688 2.304688 L 32.6875 1.796875 C 32.382812 1.148438 31.820312 0.585938 31.171875 0.28125 L 30.664062 0.0390625 L 28.046875 0.0234375 C 26.609375 0.015625 25.296875 0.046875 25.132812 0.0859375 Z M 25.132812 0.0859375 "/>
<path style=" stroke:none;fill-rule:nonzero;fill:rgb(0%,0%,0%);fill-opacity:1;" d="M 17.523438 9.773438 C 16.96875 9.984375 16.3125 10.601562 16.039062 11.15625 L 15.820312 11.601562 L 15.820312 35.585938 L 16.023438 36.015625 C 16.382812 36.789062 16.976562 37.304688 17.757812 37.539062 L 18.085938 37.632812 L 18.125 38.40625 C 18.171875 39.3125 18.28125 39.570312 18.734375 39.828125 C 19.117188 40.039062 19.445312 40.046875 19.84375 39.84375 C 20.3125 39.601562 20.46875 39.234375 20.46875 38.359375 L 20.46875 37.65625 L 35.3125 37.65625 L 35.3125 38.359375 C 35.3125 39.21875 35.453125 39.5625 35.921875 39.828125 C 36.304688 40.039062 36.632812 40.046875 37.03125 39.84375 C 37.484375 39.617188 37.609375 39.320312 37.65625 38.40625 L 37.695312 37.632812 L 38.023438 37.539062 C 38.804688 37.304688 39.398438 36.789062 39.757812 36.015625 L 39.960938 35.585938 L 39.984375 23.789062 C 40 10.9375 40.023438 11.578125 39.570312 10.859375 C 39.296875 10.429688 38.710938 9.945312 38.234375 9.765625 C 37.8125 9.609375 37.671875 9.609375 27.867188 9.617188 C 18.09375 9.617188 17.921875 9.617188 17.523438 9.773438 Z M 22.273438 12.914062 C 22.851562 13.296875 22.8125 12.476562 22.8125 23.617188 C 22.8125 33.46875 22.8125 33.601562 22.65625 33.90625 C 22.476562 34.257812 22.03125 34.53125 21.632812 34.53125 C 21.273438 34.53125 20.789062 34.226562 20.617188 33.890625 C 20.476562 33.609375 20.46875 33.265625 20.46875 23.617188 C 20.46875 14.265625 20.476562 13.617188 20.609375 13.359375 C 20.804688 12.96875 21.195312 12.734375 21.640625 12.734375 C 21.890625 12.734375 22.09375 12.789062 22.273438 12.914062 Z M 34.773438 12.914062 C 35.351562 13.296875 35.3125 12.476562 35.3125 23.617188 C 35.3125 33.46875 35.3125 33.601562 35.15625 33.90625 C 34.976562 34.257812 34.53125 34.53125 34.132812 34.53125 C 33.773438 34.53125 33.289062 34.226562 33.117188 33.890625 C 32.976562 33.609375 32.96875 33.265625 32.96875 23.617188 C 32.96875 14.265625 32.976562 13.617188 33.109375 13.359375 C 33.304688 12.96875 33.695312 12.734375 34.140625 12.734375 C 34.390625 12.734375 34.59375 12.789062 34.773438 12.914062 Z M 34.773438 12.914062 "/>
<path style=" stroke:none;fill-rule:nonzero;fill:rgb(0%,0%,0%);fill-opacity:1;" d="M 10.515625 10.351562 C 9.953125 10.578125 9.585938 10.867188 9.203125 11.375 C 8.726562 11.992188 8.65625 12.296875 8.609375 13.726562 L 8.578125 15 L 10.9375 15 L 10.9375 14.023438 C 10.9375 13 11.023438 12.648438 11.289062 12.546875 C 11.359375 12.523438 11.867188 12.5 12.414062 12.5 L 13.414062 12.5 L 13.460938 11.929688 C 13.507812 11.429688 13.671875 10.757812 13.867188 10.289062 C 13.921875 10.164062 13.820312 10.15625 12.453125 10.15625 C 11.070312 10.15625 10.945312 10.171875 10.515625 10.351562 Z M 10.515625 10.351562 "/>
<path style=" stroke:none;fill-rule:nonzero;fill:rgb(0%,0%,0%);fill-opacity:1;" d="M 2.085938 17.429688 C 1.328125 17.609375 0.601562 18.21875 0.25 18.96875 L 0.0390625 19.414062 L 0.0390625 35.585938 L 0.242188 36.015625 C 0.601562 36.789062 1.195312 37.304688 1.976562 37.539062 L 2.304688 37.632812 L 2.34375 38.40625 C 2.390625 39.3125 2.5 39.570312 2.953125 39.828125 C 3.335938 40.039062 3.664062 40.046875 4.0625 39.84375 C 4.53125 39.601562 4.6875 39.234375 4.6875 38.359375 L 4.6875 37.65625 L 14.210938 37.65625 L 13.9375 37.085938 C 13.421875 35.992188 13.4375 36.382812 13.4375 26.382812 L 13.4375 17.34375 L 7.914062 17.351562 C 4.867188 17.359375 2.25 17.390625 2.085938 17.429688 Z M 6.367188 20.625 C 6.570312 20.726562 6.75 20.890625 6.859375 21.085938 L 7.03125 21.390625 L 7.03125 27.492188 C 7.03125 33.460938 7.03125 33.609375 6.875 33.90625 C 6.695312 34.257812 6.25 34.53125 5.851562 34.53125 C 5.492188 34.53125 5.007812 34.226562 4.835938 33.890625 C 4.695312 33.609375 4.6875 33.335938 4.6875 27.492188 L 4.6875 21.390625 L 4.859375 21.085938 C 5.039062 20.765625 5.515625 20.46875 5.851562 20.46875 C 5.960938 20.46875 6.1875 20.539062 6.367188 20.625 Z M 6.367188 20.625 "/>
</g>
</svg>
