<?xml version="1.0" encoding="UTF-8"?>
<svg xmlns="http://www.w3.org/2000/svg" xmlns:xlink="http://www.w3.org/1999/xlink" width="40px" height="40px" viewBox="0 0 40 40" version="1.1">
<g id="surface1">
<path style=" stroke:none;fill-rule:nonzero;fill:rgb(0%,0%,0%);fill-opacity:1;" d="M 9.867188 0.140625 C 8.5625 0.609375 7.609375 2.0625 7.265625 4.117188 L 7.171875 4.6875 L 5.234375 4.6875 C 4.171875 4.6875 3.117188 4.726562 2.882812 4.765625 C 1.476562 5.03125 0.34375 6.164062 0.078125 7.570312 C -0.03125 8.148438 -0.03125 36.539062 0.078125 37.117188 C 0.34375 38.523438 1.476562 39.65625 2.882812 39.921875 C 3.460938 40.03125 36.539062 40.03125 37.117188 39.921875 C 38.523438 39.65625 39.65625 38.523438 39.921875 37.117188 C 40.03125 36.539062 40.03125 8.148438 39.921875 7.570312 C 39.65625 6.164062 38.523438 5.03125 37.117188 4.765625 C 36.882812 4.726562 35.828125 4.6875 34.765625 4.6875 L 32.828125 4.6875 L 32.734375 4.117188 C 32.421875 2.265625 31.53125 0.773438 30.414062 0.25 C 29.773438 -0.046875 28.976562 -0.046875 28.335938 0.25 C 27.21875 0.773438 26.328125 2.265625 26.015625 4.117188 L 25.921875 4.6875 L 23.453125 4.6875 L 23.359375 4.117188 C 23.046875 2.265625 22.15625 0.773438 21.039062 0.25 C 20.398438 -0.046875 19.601562 -0.046875 18.960938 0.25 C 17.84375 0.773438 16.953125 2.265625 16.640625 4.117188 L 16.546875 4.6875 L 14.078125 4.6875 L 13.984375 4.117188 C 13.671875 2.265625 12.773438 0.765625 11.671875 0.257812 C 11.085938 -0.0078125 10.40625 -0.0546875 9.867188 0.140625 Z M 10.882812 2.554688 C 11.125 2.8125 11.453125 3.523438 11.5625 4.046875 C 11.609375 4.25 11.664062 4.476562 11.6875 4.546875 C 11.726562 4.679688 11.640625 4.6875 10.625 4.6875 C 9.609375 4.6875 9.523438 4.679688 9.5625 4.546875 C 9.585938 4.476562 9.640625 4.25 9.6875 4.046875 C 9.835938 3.335938 10.390625 2.34375 10.625 2.34375 C 10.648438 2.34375 10.765625 2.4375 10.882812 2.554688 Z M 20.257812 2.554688 C 20.5 2.8125 20.828125 3.523438 20.9375 4.046875 C 20.984375 4.25 21.039062 4.476562 21.0625 4.546875 C 21.101562 4.679688 21.015625 4.6875 20 4.6875 C 18.984375 4.6875 18.898438 4.679688 18.9375 4.546875 C 18.960938 4.476562 19.015625 4.25 19.0625 4.046875 C 19.210938 3.335938 19.765625 2.34375 20 2.34375 C 20.023438 2.34375 20.140625 2.4375 20.257812 2.554688 Z M 29.632812 2.554688 C 29.875 2.8125 30.203125 3.523438 30.3125 4.046875 C 30.359375 4.25 30.414062 4.476562 30.4375 4.546875 C 30.476562 4.679688 30.390625 4.6875 29.375 4.6875 C 28.359375 4.6875 28.273438 4.679688 28.3125 4.546875 C 28.335938 4.476562 28.390625 4.25 28.4375 4.046875 C 28.585938 3.335938 29.140625 2.34375 29.375 2.34375 C 29.398438 2.34375 29.515625 2.4375 29.632812 2.554688 Z M 11.6875 7.164062 C 11.664062 7.242188 11.609375 7.46875 11.5625 7.671875 C 11.382812 8.515625 10.859375 9.375 10.53125 9.375 C 10.226562 9.375 9.765625 9.6875 9.609375 10 C 9.15625 10.882812 9.820312 11.796875 10.835938 11.695312 C 12.359375 11.539062 13.59375 9.9375 13.984375 7.59375 L 14.078125 7.03125 L 17.59375 7.03125 C 20.898438 7.03125 21.101562 7.039062 21.0625 7.164062 C 21.039062 7.242188 20.984375 7.46875 20.9375 7.671875 C 20.757812 8.515625 20.234375 9.375 19.90625 9.375 C 19.601562 9.375 19.140625 9.6875 18.984375 10 C 18.53125 10.882812 19.195312 11.796875 20.210938 11.695312 C 21.734375 11.539062 22.96875 9.9375 23.359375 7.59375 L 23.453125 7.03125 L 26.96875 7.03125 C 30.273438 7.03125 30.476562 7.039062 30.4375 7.164062 C 30.414062 7.242188 30.359375 7.46875 30.3125 7.671875 C 30.132812 8.515625 29.609375 9.375 29.28125 9.375 C 28.976562 9.375 28.515625 9.6875 28.359375 10 C 27.90625 10.882812 28.570312 11.796875 29.585938 11.695312 C 31.109375 11.539062 32.34375 9.9375 32.734375 7.59375 L 32.828125 7.03125 L 34.773438 7.03125 C 36.578125 7.03125 36.75 7.046875 37.03125 7.1875 C 37.234375 7.289062 37.398438 7.453125 37.5 7.65625 C 37.648438 7.945312 37.65625 8.109375 37.65625 11.054688 L 37.65625 14.140625 L 2.34375 14.140625 L 2.34375 11.054688 C 2.34375 8.109375 2.351562 7.945312 2.5 7.65625 C 2.59375 7.46875 2.773438 7.289062 2.953125 7.195312 C 3.226562 7.046875 3.414062 7.039062 7.484375 7.03125 C 11.492188 7.03125 11.726562 7.039062 11.6875 7.164062 Z M 37.65625 26.601562 C 37.65625 36.59375 37.65625 36.726562 37.5 37.03125 C 37.398438 37.234375 37.234375 37.398438 37.03125 37.5 C 36.726562 37.65625 36.609375 37.65625 20 37.65625 C 3.390625 37.65625 3.273438 37.65625 2.96875 37.5 C 2.765625 37.398438 2.601562 37.234375 2.5 37.03125 C 2.34375 36.726562 2.34375 36.59375 2.34375 26.601562 L 2.34375 16.484375 L 37.65625 16.484375 Z M 37.65625 26.601562 "/>
<path style=" stroke:none;fill-rule:nonzero;fill:rgb(0%,0%,0%);fill-opacity:1;" d="M 5.375 18.992188 C 5.195312 19.085938 5.015625 19.265625 4.921875 19.453125 C 4.765625 19.75 4.765625 19.898438 4.765625 27.070312 C 4.765625 34.242188 4.765625 34.390625 4.921875 34.6875 C 5.023438 34.890625 5.1875 35.054688 5.390625 35.15625 C 5.695312 35.3125 5.820312 35.3125 20 35.3125 C 34.179688 35.3125 34.304688 35.3125 34.609375 35.15625 C 34.8125 35.054688 34.976562 34.890625 35.078125 34.6875 C 35.234375 34.390625 35.234375 34.242188 35.234375 27.070312 C 35.234375 19.898438 35.234375 19.75 35.078125 19.453125 C 34.976562 19.25 34.8125 19.085938 34.609375 18.984375 C 34.304688 18.828125 34.1875 18.828125 19.984375 18.828125 C 5.882812 18.835938 5.65625 18.835938 5.375 18.992188 Z M 11.796875 23.515625 L 11.796875 25.859375 L 7.109375 25.859375 L 7.109375 21.171875 L 11.796875 21.171875 Z M 18.828125 23.515625 L 18.828125 25.859375 L 14.140625 25.859375 L 14.140625 21.171875 L 18.828125 21.171875 Z M 25.859375 23.515625 L 25.859375 25.859375 L 21.171875 25.859375 L 21.171875 21.171875 L 25.859375 21.171875 Z M 32.890625 23.515625 L 32.890625 25.859375 L 28.203125 25.859375 L 28.203125 21.171875 L 32.890625 21.171875 Z M 11.796875 30.585938 L 11.796875 32.96875 L 7.109375 32.96875 L 7.109375 28.203125 L 11.796875 28.203125 Z M 18.828125 30.585938 L 18.828125 32.96875 L 14.140625 32.96875 L 14.140625 28.203125 L 18.828125 28.203125 Z M 25.859375 30.585938 L 25.859375 32.96875 L 21.171875 32.96875 L 21.171875 28.203125 L 25.859375 28.203125 Z M 32.890625 30.585938 L 32.890625 32.96875 L 28.203125 32.96875 L 28.203125 28.203125 L 32.890625 28.203125 Z M 32.890625 30.585938 "/>
</g>
</svg>
