<?xml version="1.0" encoding="UTF-8"?>
<svg xmlns="http://www.w3.org/2000/svg" xmlns:xlink="http://www.w3.org/1999/xlink" width="20px" height="20px" viewBox="0 0 20 20" version="1.1">
<g id="surface1">
<path style=" stroke:none;fill-rule:nonzero;fill:rgb(246,33,33);fill-opacity:1;" d="M 9.101562 0.0429688 C 7.910156 0.15625 6.578125 0.535156 5.546875 1.054688 C 4.480469 1.59375 3.363281 2.445312 2.597656 3.304688 C 1.097656 4.992188 0.246094 6.941406 0.0390625 9.160156 C -0.121094 10.902344 0.253906 12.867188 1.054688 14.453125 C 1.59375 15.519531 2.445312 16.636719 3.304688 17.402344 C 4.992188 18.902344 6.941406 19.753906 9.160156 19.960938 C 10.902344 20.121094 12.867188 19.746094 14.453125 18.945312 C 15.519531 18.40625 16.636719 17.554688 17.402344 16.695312 C 18.902344 15.007812 19.753906 13.058594 19.960938 10.839844 C 20.121094 9.097656 19.746094 7.132812 18.945312 5.546875 C 18.40625 4.480469 17.554688 3.363281 16.695312 2.597656 C 15.007812 1.097656 13.058594 0.246094 10.839844 0.0390625 C 10.351562 -0.00390625 9.589844 -0.00390625 9.101562 0.0429688 Z M 8.347656 6.6875 L 10 8.339844 L 13.320312 5.019531 L 14.148438 5.851562 L 14.980469 6.679688 L 11.660156 10 L 14.980469 13.320312 L 14.148438 14.148438 L 13.320312 14.980469 L 10 11.660156 L 6.679688 14.980469 L 5.851562 14.148438 L 5.019531 13.320312 L 8.339844 10 L 5.019531 6.679688 L 5.839844 5.859375 C 6.289062 5.410156 6.667969 5.039062 6.679688 5.039062 C 6.691406 5.039062 7.441406 5.78125 8.347656 6.6875 Z M 8.347656 6.6875 "/>
</g>
</svg>
