<?xml version="1.0" encoding="UTF-8"?>
<svg xmlns="http://www.w3.org/2000/svg" xmlns:xlink="http://www.w3.org/1999/xlink" width="20px" height="20px" viewBox="0 0 20 20" version="1.1">
<g id="surface1">
<path style=" stroke:none;fill-rule:nonzero;fill:#51CB20;fill-opacity:1;" d="M 9.082031 0.667969 C 8.089844 0.761719 6.820312 1.125 5.882812 1.582031 C 4.976562 2.023438 3.914062 2.792969 3.257812 3.484375 C 0.8125 6.0625 0.0078125 9.628906 1.117188 12.964844 C 2.050781 15.769531 4.230469 17.949219 7.03125 18.882812 C 11.023438 20.210938 15.34375 18.761719 17.726562 15.300781 C 19.914062 12.121094 19.914062 7.878906 17.726562 4.699219 C 15.785156 1.878906 12.503906 0.347656 9.082031 0.667969 Z M 14.1875 6.859375 C 14.5 7.019531 14.6875 7.339844 14.6875 7.722656 C 14.683594 8.171875 14.867188 7.972656 11.523438 11.171875 C 10.0625 12.570312 9.464844 13.117188 9.335938 13.175781 C 9.105469 13.277344 8.785156 13.28125 8.554688 13.175781 C 8.4375 13.125 7.96875 12.722656 7.148438 11.96875 C 5.554688 10.507812 5.417969 10.371094 5.359375 10.171875 C 5.296875 9.957031 5.300781 9.636719 5.367188 9.476562 C 5.507812 9.136719 5.90625 8.867188 6.269531 8.867188 C 6.621094 8.867188 6.777344 8.976562 7.882812 9.996094 C 8.445312 10.515625 8.921875 10.9375 8.941406 10.929688 C 8.957031 10.921875 9.90625 10.019531 11.050781 8.925781 C 12.191406 7.828125 13.191406 6.898438 13.265625 6.859375 C 13.566406 6.699219 13.867188 6.699219 14.1875 6.859375 Z M 14.1875 6.859375 "/>
</g>
</svg>
