<?xml version="1.0" encoding="UTF-8"?>
<svg xmlns="http://www.w3.org/2000/svg" xmlns:xlink="http://www.w3.org/1999/xlink" width="20px" height="20px" viewBox="0 0 20 20" version="1.1">
<g id="surface1">
<path style=" stroke:none;fill-rule:nonzero;fill:rgb(149,148,155);fill-opacity:1;" d="M 7.304688 0.855469 C 7.023438 0.945312 6.839844 1.101562 6.738281 1.335938 C 6.691406 1.453125 6.679688 1.660156 6.679688 2.398438 L 6.679688 3.316406 L 4.894531 3.328125 L 3.105469 3.339844 L 2.921875 3.449219 C 2.59375 3.640625 2.4375 4.035156 2.539062 4.40625 C 2.597656 4.625 2.851562 4.886719 3.070312 4.953125 C 3.304688 5.023438 16.695312 5.023438 16.929688 4.953125 C 17.152344 4.886719 17.394531 4.632812 17.457031 4.402344 C 17.5625 4.03125 17.40625 3.640625 17.078125 3.449219 L 16.894531 3.339844 L 15.109375 3.328125 L 13.320312 3.316406 L 13.320312 2.398438 C 13.320312 1.660156 13.308594 1.453125 13.261719 1.335938 C 13.183594 1.152344 13.066406 1.03125 12.871094 0.925781 C 12.714844 0.839844 12.695312 0.839844 10.058594 0.832031 C 8.597656 0.828125 7.359375 0.839844 7.304688 0.855469 Z M 11.679688 2.910156 L 11.679688 3.320312 L 8.320312 3.320312 L 8.320312 2.5 L 11.679688 2.5 Z M 11.679688 2.910156 "/>
<path style=" stroke:none;fill-rule:nonzero;fill:rgb(149,148,155);fill-opacity:1;" d="M 3.9375 5.867188 C 3.855469 5.886719 3.710938 5.976562 3.613281 6.0625 C 3.296875 6.339844 3.316406 5.984375 3.328125 11.507812 L 3.339844 16.386719 L 3.429688 16.699219 C 3.542969 17.117188 3.816406 17.660156 4.0625 17.960938 C 4.480469 18.472656 5.121094 18.882812 5.800781 19.074219 L 6.113281 19.160156 L 13.886719 19.160156 L 14.199219 19.074219 C 14.878906 18.882812 15.519531 18.472656 15.9375 17.960938 C 16.183594 17.660156 16.457031 17.117188 16.570312 16.699219 L 16.660156 16.386719 L 16.671875 11.542969 C 16.679688 8.066406 16.671875 6.640625 16.640625 6.496094 C 16.609375 6.355469 16.550781 6.242188 16.441406 6.117188 C 16.054688 5.675781 15.363281 5.769531 15.101562 6.292969 L 15 6.5 L 15 11.3125 C 15 16 14.996094 16.132812 14.921875 16.375 C 14.769531 16.875 14.375 17.265625 13.871094 17.425781 C 13.636719 17.496094 13.484375 17.5 10 17.5 C 6.496094 17.5 6.367188 17.496094 6.125 17.421875 C 5.625 17.269531 5.234375 16.875 5.074219 16.371094 C 5.003906 16.132812 5 15.972656 5 11.308594 L 5 6.492188 L 4.890625 6.285156 C 4.710938 5.9375 4.308594 5.761719 3.9375 5.867188 Z M 3.9375 5.867188 "/>
<path style=" stroke:none;fill-rule:nonzero;fill:rgb(149,148,155);fill-opacity:1;" d="M 8.054688 7.542969 C 7.875 7.597656 7.59375 7.886719 7.542969 8.070312 C 7.484375 8.28125 7.484375 14.21875 7.542969 14.429688 C 7.601562 14.640625 7.867188 14.894531 8.097656 14.957031 C 8.46875 15.0625 8.859375 14.90625 9.050781 14.578125 L 9.160156 14.394531 L 9.160156 8.105469 L 9.050781 7.921875 C 8.859375 7.59375 8.425781 7.429688 8.054688 7.542969 Z M 8.054688 7.542969 "/>
<path style=" stroke:none;fill-rule:nonzero;fill:rgb(149,148,155);fill-opacity:1;" d="M 11.285156 7.609375 C 11.132812 7.6875 11.042969 7.769531 10.957031 7.910156 L 10.839844 8.097656 L 10.839844 14.394531 L 10.949219 14.578125 C 11.140625 14.90625 11.53125 15.0625 11.902344 14.957031 C 12.132812 14.894531 12.386719 14.652344 12.453125 14.429688 C 12.519531 14.199219 12.519531 8.300781 12.453125 8.070312 C 12.390625 7.863281 12.136719 7.609375 11.929688 7.546875 C 11.679688 7.472656 11.511719 7.488281 11.285156 7.609375 Z M 11.285156 7.609375 "/>
</g>
</svg>