<?xml version="1.0" encoding="UTF-8"?>
<svg xmlns="http://www.w3.org/2000/svg" xmlns:xlink="http://www.w3.org/1999/xlink" width="20px" height="20px" viewBox="0 0 20 20" version="1.1">
<g id="surface1">
<path style=" stroke:none;fill-rule:nonzero;fill:rgb(246,33,33);fill-opacity:1;" d="M 9.257812 0.0585938 C 7.667969 0.28125 6.292969 1.199219 5.433594 2.613281 C 4.832031 3.605469 4.574219 4.882812 4.75 6.042969 C 4.945312 7.378906 5.605469 8.558594 6.621094 9.402344 C 6.796875 9.546875 6.808594 9.566406 6.738281 9.59375 C 6.042969 9.835938 5.1875 10.246094 4.597656 10.617188 C 4.015625 10.980469 3.53125 11.363281 2.976562 11.898438 C 1.597656 13.21875 0.640625 14.855469 0.148438 16.734375 C 0.046875 17.125 0.0234375 17.28125 0.0234375 17.636719 C 0.0234375 18.007812 0.0390625 18.109375 0.132812 18.378906 C 0.386719 19.109375 0.925781 19.644531 1.660156 19.890625 L 1.933594 19.980469 L 10.6875 19.980469 L 10.847656 19.875 C 11.089844 19.714844 11.191406 19.523438 11.191406 19.21875 C 11.191406 18.914062 11.089844 18.722656 10.847656 18.5625 L 10.6875 18.457031 L 6.410156 18.4375 C 2.476562 18.417969 2.117188 18.414062 2.007812 18.351562 C 1.753906 18.214844 1.5625 17.902344 1.5625 17.625 C 1.5625 17.488281 1.746094 16.789062 1.898438 16.347656 C 2.171875 15.558594 2.734375 14.546875 3.277344 13.867188 C 3.390625 13.726562 3.660156 13.433594 3.875 13.210938 C 6.101562 10.941406 9.335938 10.089844 12.402344 10.964844 C 13.164062 11.179688 13.972656 11.554688 14.710938 12.035156 C 15.164062 12.328125 15.363281 12.402344 15.582031 12.363281 C 15.890625 12.304688 16.167969 12.046875 16.230469 11.75 C 16.273438 11.5625 16.214844 11.308594 16.097656 11.144531 C 15.878906 10.84375 14.46875 10.039062 13.613281 9.726562 C 13.421875 9.65625 13.246094 9.585938 13.230469 9.570312 C 13.214844 9.554688 13.300781 9.460938 13.425781 9.359375 C 13.550781 9.257812 13.78125 9.03125 13.941406 8.855469 C 15.828125 6.753906 15.746094 3.558594 13.75 1.5625 C 12.566406 0.378906 10.914062 -0.171875 9.257812 0.0585938 Z M 10.714844 1.644531 C 11.46875 1.796875 12.097656 2.132812 12.640625 2.671875 C 13.183594 3.21875 13.515625 3.839844 13.671875 4.609375 C 13.960938 6.011719 13.328125 7.574219 12.140625 8.390625 C 11.042969 9.144531 9.609375 9.261719 8.414062 8.695312 C 7.976562 8.488281 7.769531 8.347656 7.441406 8.039062 C 6.507812 7.167969 6.074219 5.832031 6.328125 4.609375 C 6.484375 3.839844 6.816406 3.21875 7.359375 2.671875 C 8.257812 1.777344 9.5 1.394531 10.714844 1.644531 Z M 10.714844 1.644531 "/>
<path style=" stroke:none;fill-rule:nonzero;fill:rgb(246,33,33);fill-opacity:1;" d="M 13.875 13.402344 C 13.609375 13.480469 13.359375 13.835938 13.359375 14.140625 C 13.359375 14.453125 13.40625 14.511719 14.503906 15.613281 L 15.5625 16.679688 L 14.503906 17.746094 C 13.566406 18.683594 13.441406 18.828125 13.398438 18.984375 C 13.234375 19.605469 13.753906 20.125 14.375 19.960938 C 14.53125 19.917969 14.675781 19.792969 15.617188 18.855469 L 16.679688 17.796875 L 17.746094 18.855469 C 18.683594 19.792969 18.828125 19.917969 18.984375 19.960938 C 19.605469 20.125 20.125 19.605469 19.960938 18.984375 C 19.917969 18.828125 19.792969 18.683594 18.855469 17.746094 L 17.796875 16.679688 L 18.855469 15.617188 C 19.792969 14.675781 19.917969 14.53125 19.960938 14.375 C 20.125 13.753906 19.605469 13.234375 18.984375 13.398438 C 18.828125 13.441406 18.683594 13.566406 17.746094 14.503906 L 16.679688 15.5625 L 15.617188 14.503906 C 14.734375 13.625 14.523438 13.4375 14.394531 13.402344 C 14.210938 13.351562 14.050781 13.351562 13.875 13.402344 Z M 13.875 13.402344 "/>
</g>
</svg>
