<?xml version="1.0" standalone="no"?>
<!DOCTYPE svg PUBLIC "-//W3C//DTD SVG 20010904//EN"
 "http://www.w3.org/TR/2001/REC-SVG-20010904/DTD/svg10.dtd">
<svg version="1.0" xmlns="http://www.w3.org/2000/svg"
 width="512.000000pt" height="512.000000pt" viewBox="0 0 512.000000 512.000000"
 preserveAspectRatio="xMidYMid meet">

<g transform="translate(0.000000,512.000000) scale(0.100000,-0.100000)"
fill="#000000" stroke="none">
<path d="M4510 4291 c-30 -10 -301 -133 -601 -274 l-546 -257 -429 136 c-236
74 -620 196 -854 270 -259 82 -435 133 -450 130 -14 -2 -155 -71 -313 -152
-230 -117 -291 -152 -302 -175 -20 -39 -19 -72 5 -102 11 -14 230 -191 487
-393 l466 -368 -39 -18 c-21 -10 -171 -81 -333 -157 l-295 -138 -370 124
c-252 84 -379 121 -396 117 -35 -8 -480 -280 -507 -310 -31 -34 -31 -94 0
-128 35 -39 784 -546 873 -591 234 -119 523 -140 771 -56 53 18 159 66 623
283 47 22 117 55 155 73 100 46 127 84 105 149 -13 41 -48 66 -91 66 -20 0
-164 -62 -388 -167 -196 -91 -380 -177 -410 -190 -197 -87 -455 -83 -654 11
-78 37 -710 465 -710 481 0 12 242 163 263 164 8 1 178 -54 379 -120 l365
-121 45 19 c181 77 858 403 877 422 27 27 33 94 11 122 -11 15 -190 157 -726
578 l-233 184 183 93 184 93 851 -270 c468 -148 859 -269 868 -269 10 0 281
125 604 277 l587 277 75 0 c62 0 84 -4 126 -26 89 -47 143 -132 144 -227 0
-83 -19 -130 -75 -187 -47 -48 -93 -70 -820 -409 -534 -248 -778 -366 -797
-386 -47 -50 -33 -125 29 -154 19 -9 44 -14 56 -11 12 3 216 96 452 206 237
111 576 269 755 353 375 174 422 200 477 260 92 100 127 200 121 346 -3 82 -8
106 -35 164 -99 209 -353 326 -563 258z"/>
<path d="M2853 2712 c-38 -6 -73 -50 -73 -94 0 -50 23 -84 65 -98 76 -25 150
49 125 125 -6 18 -17 38 -25 45 -18 15 -65 27 -92 22z"/>
<path d="M51 996 c-67 -37 -65 -143 4 -174 38 -17 4972 -17 5010 0 29 13 55
55 55 88 0 33 -26 75 -55 88 -40 19 -4980 17 -5014 -2z"/>
</g>
</svg>
