<?xml version="1.0" encoding="UTF-8"?>
<svg xmlns="http://www.w3.org/2000/svg" xmlns:xlink="http://www.w3.org/1999/xlink" width="30px" height="30px" viewBox="0 0 30 30" version="1.1">
<g id="surface1">
<path style=" stroke:none;fill-rule:nonzero;fill:rgb(0%,0%,0%);fill-opacity:1;" d="M 7.910156 2.425781 C 7.28125 2.601562 6.65625 2.773438 6.527344 2.804688 L 6.28125 2.871094 L 9.296875 8.101562 C 10.960938 10.976562 12.328125 13.371094 12.34375 13.417969 C 12.363281 13.488281 11.753906 13.671875 9.304688 14.320312 C 7.617188 14.773438 5.96875 15.203125 5.648438 15.292969 L 5.054688 15.457031 L 3.597656 14.3125 L 2.144531 13.171875 L 1.101562 13.445312 C 0.527344 13.605469 0.0585938 13.757812 0.0585938 13.789062 C 0.0585938 13.820312 0.90625 15.316406 1.9375 17.109375 L 3.828125 20.375 L 4.535156 20.1875 C 24.902344 14.730469 28.53125 13.746094 28.84375 13.578125 C 29.648438 13.15625 30.109375 12.222656 29.960938 11.332031 C 29.765625 10.210938 28.875 9.457031 27.773438 9.46875 C 27.398438 9.476562 26.753906 9.625 23.359375 10.539062 C 21.179688 11.132812 19.371094 11.601562 19.34375 11.589844 C 19.3125 11.578125 17.015625 9.453125 14.234375 6.855469 C 11.453125 4.257812 9.152344 2.132812 9.117188 2.125 C 9.082031 2.121094 8.539062 2.257812 7.910156 2.425781 Z M 7.910156 2.425781 "/>
<path style=" stroke:none;fill-rule:nonzero;fill:rgb(0%,0%,0%);fill-opacity:1;" d="M 0.996094 26.425781 L 0.996094 27.890625 L 29.0625 27.890625 L 29.0625 24.960938 L 0.996094 24.960938 Z M 0.996094 26.425781 "/>
</g>
</svg>
