<?xml version="1.0" encoding="UTF-8"?>
<svg xmlns="http://www.w3.org/2000/svg" xmlns:xlink="http://www.w3.org/1999/xlink" width="20px" height="20px" viewBox="0 0 20 20" version="1.1">
<g id="surface1">
<path style=" stroke:none;fill-rule:nonzero;fill:rgb(41,170,224);fill-opacity:1;" d="M 17.519531 0.078125 C 17.234375 0.136719 16.917969 0.277344 16.691406 0.449219 C 16.566406 0.539062 16.203125 0.882812 15.878906 1.207031 L 15.292969 1.796875 L 16.769531 3.269531 L 18.242188 4.746094 L 18.867188 4.121094 C 19.214844 3.777344 19.558594 3.398438 19.640625 3.28125 C 20.195312 2.445312 20.089844 1.371094 19.378906 0.660156 C 18.882812 0.164062 18.1875 -0.0546875 17.519531 0.078125 Z M 17.519531 0.078125 "/>
<path style=" stroke:none;fill-rule:nonzero;fill:rgb(41,170,224);fill-opacity:1;" d="M 11.066406 6.023438 C 8.390625 8.703125 7.734375 9.382812 7.703125 9.492188 C 7.683594 9.566406 7.539062 10.277344 7.382812 11.074219 C 7.191406 12.035156 7.105469 12.554688 7.121094 12.628906 C 7.15625 12.765625 7.273438 12.882812 7.410156 12.917969 C 7.558594 12.953125 10.539062 12.359375 10.691406 12.265625 C 10.75 12.226562 12.277344 10.71875 14.082031 8.910156 L 17.363281 5.625 L 15.898438 4.160156 C 15.09375 3.355469 14.425781 2.695312 14.414062 2.695312 C 14.402344 2.695312 12.898438 4.195312 11.066406 6.023438 Z M 11.066406 6.023438 "/>
<path style=" stroke:none;fill-rule:nonzero;fill:rgb(41,170,224);fill-opacity:1;" d="M 2.042969 3.417969 C 1.292969 3.554688 0.597656 4.085938 0.257812 4.785156 C -0.015625 5.347656 -0.00390625 4.953125 0.0078125 11.835938 L 0.0195312 18.027344 L 0.105469 18.28125 C 0.234375 18.65625 0.457031 19.007812 0.742188 19.296875 C 1.035156 19.589844 1.324219 19.769531 1.707031 19.902344 L 1.972656 20 L 14.644531 20 L 14.949219 19.902344 C 15.734375 19.65625 16.351562 19 16.589844 18.160156 C 16.65625 17.925781 16.660156 17.671875 16.660156 14.273438 L 16.660156 10.636719 L 16.542969 10.449219 C 16.371094 10.171875 16.082031 10.023438 15.769531 10.050781 C 15.496094 10.074219 15.28125 10.203125 15.128906 10.4375 L 15.019531 10.601562 L 15 14.195312 C 14.980469 17.484375 14.976562 17.804688 14.914062 17.914062 C 14.820312 18.085938 14.597656 18.269531 14.425781 18.320312 C 14.320312 18.351562 12.511719 18.359375 8.238281 18.351562 L 2.199219 18.339844 L 2.046875 18.234375 C 1.964844 18.175781 1.851562 18.0625 1.796875 17.980469 L 1.699219 17.835938 L 1.6875 11.75 C 1.679688 5.816406 1.679688 5.660156 1.753906 5.515625 C 1.796875 5.4375 1.878906 5.324219 1.941406 5.265625 C 2.1875 5.027344 2.015625 5.039062 5.804688 5.039062 C 8.433594 5.039062 9.308594 5.027344 9.429688 4.992188 C 9.652344 4.925781 9.894531 4.671875 9.957031 4.441406 C 10.0625 4.070312 9.90625 3.679688 9.578125 3.488281 L 9.394531 3.378906 L 5.859375 3.371094 C 3.078125 3.367188 2.265625 3.375 2.042969 3.417969 Z M 2.042969 3.417969 "/>
</g>
</svg>
