<?xml version="1.0" encoding="UTF-8"?>
<svg xmlns="http://www.w3.org/2000/svg" xmlns:xlink="http://www.w3.org/1999/xlink" width="20px" height="px" viewBox="0 0 20 20" version="1.1">
<g id="surface1">
<path style=" stroke:none;fill-rule:nonzero;fill:rgb(246,33,33);fill-opacity:1;" d="M 9.257812 0.0429688 C 7.183594 0.277344 5.292969 1.503906 4.238281 3.300781 C 3.484375 4.582031 3.171875 6.140625 3.382812 7.574219 C 3.710938 9.839844 5.261719 13.109375 7.824219 16.953125 C 8.445312 17.878906 9.058594 18.746094 9.601562 19.460938 C 10.007812 20 10.007812 20 10.078125 19.910156 C 10.324219 19.589844 11.214844 18.316406 11.707031 17.578125 C 14.136719 13.933594 15.75 10.839844 16.367188 8.644531 C 16.582031 7.890625 16.644531 7.511719 16.667969 6.871094 C 16.753906 4.566406 15.632812 2.414062 13.671875 1.105469 C 13.042969 0.683594 12.09375 0.289062 11.359375 0.140625 C 10.707031 0.0078125 9.90625 -0.03125 9.257812 0.0429688 Z M 11.019531 2.746094 C 12.425781 3.113281 13.519531 4.191406 13.929688 5.605469 C 14.074219 6.109375 14.105469 6.964844 13.992188 7.503906 C 13.835938 8.265625 13.492188 8.914062 12.945312 9.488281 C 11.824219 10.667969 10.230469 11.058594 8.671875 10.542969 C 7.609375 10.191406 6.613281 9.242188 6.207031 8.183594 C 5.992188 7.636719 5.925781 7.214844 5.949219 6.542969 C 5.96875 5.84375 6.0625 5.476562 6.367188 4.863281 C 6.921875 3.75 7.9375 2.96875 9.183594 2.699219 C 9.703125 2.585938 10.488281 2.605469 11.019531 2.746094 Z M 11.019531 2.746094 "/>
<path style=" stroke:none;fill-rule:nonzero;fill:rgb(246,33,33);fill-opacity:1;" d="M 9.398438 3.855469 C 8.816406 3.976562 8.308594 4.269531 7.886719 4.71875 C 7.375 5.261719 7.148438 5.816406 7.117188 6.585938 C 7.105469 6.976562 7.113281 7.113281 7.179688 7.375 C 7.480469 8.566406 8.4375 9.410156 9.671875 9.574219 C 10.640625 9.703125 11.710938 9.246094 12.296875 8.457031 C 12.734375 7.867188 12.910156 7.296875 12.882812 6.570312 C 12.847656 5.808594 12.617188 5.253906 12.097656 4.703125 C 11.398438 3.960938 10.382812 3.640625 9.398438 3.855469 Z M 11.632812 5.53125 C 11.863281 5.71875 12.050781 5.882812 12.050781 5.902344 C 12.050781 5.953125 9.910156 8.628906 9.871094 8.628906 C 9.839844 8.632812 8.214844 7.472656 8.089844 7.359375 C 8.046875 7.320312 8.09375 7.230469 8.378906 6.839844 C 8.609375 6.519531 8.734375 6.375 8.765625 6.398438 C 8.964844 6.554688 9.585938 7 9.625 7.015625 C 9.652344 7.027344 9.984375 6.640625 10.40625 6.113281 C 10.808594 5.609375 11.15625 5.195312 11.175781 5.195312 C 11.199219 5.195312 11.402344 5.347656 11.632812 5.53125 Z M 11.632812 5.53125 "/>
</g>
</svg>
