<?xml version="1.0" encoding="UTF-8"?>
<svg xmlns="http://www.w3.org/2000/svg" xmlns:xlink="http://www.w3.org/1999/xlink" width="20px" height="px" viewBox="0 0 20 20" version="1.1">
<g id="surface1">
<path style=" stroke:none;fill-rule:nonzero;fill:rgb(41,170,224);fill-opacity:1;" d="M 1.539062 0.0390625 C 1.492188 0.0585938 1.425781 0.113281 1.390625 0.164062 C 1.332031 0.242188 1.328125 1.109375 1.328125 10.003906 L 1.328125 19.753906 L 1.40625 19.855469 C 1.566406 20.058594 1.945312 20.011719 2.03125 19.78125 C 2.054688 19.722656 2.070312 18.363281 2.070312 16.308594 L 2.070312 12.933594 L 2.433594 13.109375 C 3.878906 13.792969 5.570312 13.9375 7.539062 13.550781 C 8.089844 13.441406 8.871094 13.246094 9.863281 12.96875 C 12.132812 12.332031 12.359375 12.277344 13.078125 12.167969 C 14.171875 12.003906 15.035156 12.019531 15.8125 12.210938 C 16.632812 12.414062 17.191406 12.722656 17.921875 13.375 C 18.21875 13.640625 18.371094 13.664062 18.558594 13.480469 L 18.671875 13.367188 L 18.671875 1.792969 L 18.46875 1.578125 C 18.359375 1.460938 18.144531 1.269531 17.992188 1.152344 C 16.523438 0.0273438 14.816406 -0.25 12.382812 0.238281 C 12.15625 0.285156 11.148438 0.546875 10.136719 0.820312 C 7.148438 1.636719 6.835938 1.695312 5.507812 1.695312 C 4.707031 1.695312 4.539062 1.683594 4.195312 1.609375 C 3.59375 1.480469 3.078125 1.300781 2.5625 1.039062 L 2.089844 0.800781 L 2.078125 0.605469 C 2.0625 0.238281 2.035156 0.15625 1.902344 0.078125 C 1.769531 -0.00390625 1.671875 -0.015625 1.539062 0.0390625 Z M 15.84375 0.917969 C 16.542969 1.101562 17.117188 1.394531 17.667969 1.855469 L 17.929688 2.078125 L 17.929688 4.292969 L 17.53125 4.101562 C 16.886719 3.796875 16.136719 3.570312 15.5 3.496094 L 15.273438 3.46875 L 15.273438 4.796875 C 15.273438 6.246094 15.261719 6.171875 15.496094 6.171875 C 15.667969 6.171875 16.347656 6.324219 16.726562 6.449219 C 16.925781 6.511719 17.277344 6.65625 17.511719 6.765625 L 17.929688 6.964844 L 17.929688 8.308594 C 17.929688 9.050781 17.917969 9.648438 17.902344 9.640625 C 17.882812 9.632812 17.777344 9.578125 17.664062 9.519531 C 17.136719 9.242188 16.355469 8.988281 15.707031 8.882812 C 15.523438 8.851562 15.347656 8.828125 15.324219 8.828125 C 15.285156 8.828125 15.273438 9.101562 15.273438 10.070312 L 15.273438 11.308594 L 14.503906 11.3125 C 13.804688 11.3125 12.921875 11.390625 12.71875 11.46875 C 12.664062 11.492188 12.65625 11.367188 12.65625 10.261719 C 12.65625 9.582031 12.644531 9.019531 12.628906 9.011719 C 12.585938 8.988281 11.613281 9.21875 10.734375 9.460938 L 10 9.660156 L 10 12.144531 L 9.71875 12.226562 C 9.5625 12.273438 9.320312 12.34375 9.179688 12.382812 C 8.832031 12.484375 7.714844 12.757812 7.511719 12.792969 L 7.34375 12.820312 L 7.34375 10.339844 L 7.179688 10.367188 C 6.480469 10.472656 6.027344 10.507812 5.421875 10.507812 L 4.726562 10.507812 L 4.726562 12.976562 L 4.503906 12.949219 C 3.890625 12.875 3.074219 12.605469 2.441406 12.273438 L 2.089844 12.089844 L 2.078125 10.875 L 2.070312 9.660156 L 2.449219 9.847656 C 3.070312 10.15625 4.148438 10.46875 4.585938 10.46875 L 4.726562 10.46875 L 4.726562 7.820312 L 4.40625 7.777344 C 3.707031 7.675781 2.914062 7.425781 2.339844 7.125 L 2.070312 6.984375 L 2.070312 4.296875 L 2.375 4.449219 C 2.8125 4.671875 3.101562 4.785156 3.496094 4.898438 C 3.890625 5.007812 4.441406 5.117188 4.613281 5.117188 L 4.726562 5.117188 L 4.726562 2.46875 L 5.65625 2.449219 C 6.164062 2.4375 6.695312 2.410156 6.835938 2.386719 C 6.976562 2.363281 7.148438 2.335938 7.21875 2.324219 L 7.34375 2.300781 L 7.34375 3.632812 C 7.34375 4.660156 7.332031 4.96875 7.296875 4.980469 C 7.101562 5.054688 6.335938 5.128906 5.597656 5.144531 L 4.726562 5.167969 L 4.726562 7.804688 L 5.128906 7.832031 C 5.570312 7.859375 6.453125 7.804688 6.957031 7.714844 C 7.136719 7.683594 7.296875 7.65625 7.316406 7.65625 C 7.332031 7.65625 7.34375 7.050781 7.34375 6.3125 L 7.34375 4.964844 L 7.570312 4.921875 C 8.101562 4.816406 9.035156 4.578125 9.734375 4.371094 L 10 4.292969 L 10.007812 2.960938 L 10.019531 1.625 L 10.703125 1.4375 C 11.652344 1.175781 12.394531 0.984375 12.523438 0.96875 L 12.636719 0.957031 L 12.648438 2.300781 L 12.65625 3.640625 L 12.757812 3.617188 C 13.15625 3.515625 13.726562 3.464844 14.460938 3.460938 L 15.273438 3.457031 L 15.273438 0.820312 L 15.367188 0.820312 C 15.417969 0.820312 15.632812 0.863281 15.84375 0.917969 Z M 15.84375 0.917969 "/>
<path style=" stroke:none;fill-rule:nonzero;fill:rgb(41,170,224);fill-opacity:1;" d="M 12.03125 3.769531 C 11.570312 3.875 11.050781 4.011719 10.070312 4.285156 C 10.003906 4.304688 10 4.402344 10 5.648438 L 10 6.988281 L 9.835938 7.03125 C 9.742188 7.058594 9.457031 7.136719 9.199219 7.207031 C 8.75 7.335938 7.902344 7.542969 7.617188 7.597656 C 7.316406 7.65625 7.34375 7.511719 7.34375 8.992188 L 7.34375 10.320312 L 7.511719 10.292969 C 7.6875 10.265625 9.304688 9.855469 9.726562 9.734375 L 9.980469 9.660156 L 10.019531 6.972656 L 10.761719 6.765625 C 11.171875 6.652344 11.761719 6.503906 12.078125 6.433594 L 12.65625 6.308594 L 12.65625 4.992188 C 12.65625 4.269531 12.644531 3.667969 12.628906 3.660156 C 12.609375 3.648438 12.34375 3.699219 12.03125 3.769531 Z M 12.03125 3.769531 "/>
<path style=" stroke:none;fill-rule:nonzero;fill:rgb(41,170,224);fill-opacity:1;" d="M 13.515625 6.175781 C 13.355469 6.195312 13.101562 6.234375 12.949219 6.261719 L 12.675781 6.308594 L 12.664062 7.652344 L 12.65625 8.992188 L 12.753906 8.96875 C 13.121094 8.875 13.773438 8.816406 14.480469 8.8125 L 15.273438 8.808594 L 15.273438 6.132812 L 14.542969 6.136719 C 14.136719 6.140625 13.675781 6.15625 13.515625 6.175781 Z M 13.515625 6.175781 "/>
</g>
</svg>
