<?xml version="1.0" encoding="UTF-8"?>
<svg xmlns="http://www.w3.org/2000/svg" xmlns:xlink="http://www.w3.org/1999/xlink" width="40px" height="40px" viewBox="0 0 40 40" version="1.1">
<g id="surface1">
<path style=" stroke:none;fill-rule:nonzero;fill:rgb(0%,0%,0%);fill-opacity:1;" d="M 1.054688 5.382812 C 0.6875 5.476562 0.492188 5.601562 0.257812 5.90625 C -0.046875 6.3125 -0.046875 6.945312 0.25 7.390625 C 0.359375 7.554688 2.9375 10.453125 5.96875 13.820312 C 9 17.1875 11.484375 19.96875 11.484375 20 C 11.484375 20.03125 9 22.8125 5.96875 26.179688 C 2.9375 29.546875 0.367188 32.4375 0.257812 32.59375 C -0.0234375 33.007812 -0.0546875 33.46875 0.171875 33.90625 C 0.398438 34.34375 0.75 34.585938 1.273438 34.648438 C 1.5 34.671875 3.492188 34.6875 5.703125 34.671875 C 9.5 34.648438 9.742188 34.640625 9.96875 34.5 C 10.296875 34.304688 22.25 21.023438 22.476562 20.609375 C 22.679688 20.242188 22.703125 19.875 22.546875 19.5 C 22.414062 19.179688 10.523438 5.921875 10.070312 5.585938 L 9.75 5.351562 L 5.523438 5.335938 C 3.195312 5.328125 1.1875 5.351562 1.054688 5.382812 Z M 1.054688 5.382812 "/>
<path style=" stroke:none;fill-rule:nonzero;fill:rgb(0%,0%,0%);fill-opacity:1;" d="M 18.242188 5.429688 C 17.875 5.554688 17.453125 6.007812 17.382812 6.34375 C 17.351562 6.46875 17.351562 6.726562 17.382812 6.914062 C 17.4375 7.328125 16.953125 6.757812 23.695312 14.25 C 26.523438 17.382812 28.828125 19.96875 28.828125 20 C 28.828125 20.03125 26.34375 22.8125 23.3125 26.179688 C 20.273438 29.546875 17.703125 32.421875 17.585938 32.570312 C 17.421875 32.789062 17.382812 32.921875 17.382812 33.320312 C 17.382812 33.726562 17.414062 33.84375 17.601562 34.085938 C 18.046875 34.671875 17.804688 34.648438 22.703125 34.648438 L 27.085938 34.648438 L 27.359375 34.453125 C 27.765625 34.164062 39.765625 20.789062 39.890625 20.492188 C 40.03125 20.171875 40.03125 19.828125 39.890625 19.507812 C 39.765625 19.210938 27.765625 5.835938 27.359375 5.546875 L 27.085938 5.351562 L 22.820312 5.335938 C 19.289062 5.320312 18.5 5.335938 18.242188 5.429688 Z M 18.242188 5.429688 "/>
</g>
</svg>
