<?xml version="1.0" encoding="UTF-8"?>
<svg xmlns="http://www.w3.org/2000/svg" xmlns:xlink="http://www.w3.org/1999/xlink" width="40px" height="40px" viewBox="0 0 40 40" version="1.1">
<g id="surface1">
<path style=" stroke:none;fill-rule:nonzero;fill:rgb(0%,0%,0%);fill-opacity:1;" d="M 18.625 0.46875 C 10.71875 1.007812 3.851562 6.234375 1.164062 13.773438 C 0.75 14.914062 0.367188 16.5 0.1875 17.773438 C 0.0078125 19 -0.0078125 21.648438 0.148438 22.890625 C 0.945312 29.265625 4.640625 34.8125 10.203125 37.984375 C 11.484375 38.71875 13.46875 39.546875 13.976562 39.5625 C 14.375 39.570312 14.710938 39.40625 14.882812 39.117188 C 15.023438 38.882812 15.03125 38.726562 15.007812 37.03125 C 15 36.023438 14.984375 35.1875 14.976562 35.1875 C 14.96875 35.179688 14.679688 35.21875 14.335938 35.28125 C 12.28125 35.617188 10.453125 35.15625 9.289062 33.992188 C 8.835938 33.539062 8.695312 33.320312 8.242188 32.382812 C 7.507812 30.851562 7.078125 30.265625 6.25 29.664062 C 5.640625 29.226562 5.3125 28.898438 5.3125 28.734375 C 5.3125 28.34375 6.257812 28.210938 7.007812 28.5 C 7.984375 28.867188 8.632812 29.429688 9.34375 30.515625 C 10.328125 32.007812 11.5625 32.671875 13.132812 32.554688 C 13.734375 32.507812 14.953125 32.171875 15.046875 32.023438 C 15.070312 31.976562 15.148438 31.726562 15.203125 31.46875 C 15.351562 30.84375 15.734375 30.054688 16.0625 29.6875 C 16.375 29.335938 16.40625 29.359375 15.390625 29.21875 C 14.585938 29.109375 13.1875 28.75 12.515625 28.484375 C 9.6875 27.367188 8.054688 25.28125 7.445312 22.007812 C 7.25 20.960938 7.25 18.390625 7.445312 17.578125 C 7.726562 16.414062 8.25 15.351562 8.96875 14.46875 L 9.304688 14.054688 L 9.1875 13.6875 C 8.78125 12.429688 8.828125 10.796875 9.3125 9.28125 C 9.46875 8.804688 9.5 8.757812 9.734375 8.710938 C 10.570312 8.554688 12.484375 9.242188 14.234375 10.320312 L 15 10.796875 L 15.679688 10.640625 C 17.273438 10.273438 18.007812 10.195312 20 10.195312 C 22 10.195312 22.726562 10.273438 24.320312 10.640625 L 25.007812 10.796875 L 25.609375 10.421875 C 26.804688 9.671875 27.984375 9.117188 28.789062 8.914062 C 29.453125 8.75 30.03125 8.671875 30.28125 8.71875 C 30.5 8.757812 30.539062 8.8125 30.6875 9.28125 C 31.132812 10.671875 31.210938 12.4375 30.867188 13.515625 L 30.703125 14.023438 L 30.859375 14.21875 C 31.625 15.164062 32.226562 16.320312 32.515625 17.414062 C 32.71875 18.179688 32.796875 20.132812 32.664062 21.226562 C 32.085938 25.976562 29.484375 28.53125 24.53125 29.21875 C 23.59375 29.34375 23.609375 29.335938 23.882812 29.632812 C 24.242188 30.007812 24.585938 30.679688 24.78125 31.375 C 24.9375 31.953125 24.953125 32.203125 24.992188 35.507812 C 25.046875 39.351562 25.03125 39.273438 25.507812 39.46875 C 25.875 39.625 26.304688 39.570312 27.070312 39.265625 C 29.789062 38.210938 31.929688 36.835938 33.976562 34.820312 C 37.234375 31.617188 39.28125 27.460938 39.851562 22.890625 C 40.007812 21.648438 39.992188 19 39.8125 17.773438 C 38.460938 8.25 30.820312 1.125 21.273438 0.46875 C 20.015625 0.382812 19.90625 0.382812 18.625 0.46875 Z M 18.625 0.46875 "/>
</g>
</svg>
