<?xml version="1.0" encoding="UTF-8"?>
<svg xmlns="http://www.w3.org/2000/svg" xmlns:xlink="http://www.w3.org/1999/xlink" width="40px" height="40px" viewBox="0 0 40 40" version="1.1">
<g id="surface1">
<path style=" stroke:none;fill-rule:nonzero;fill:rgb(0%,0%,0%);fill-opacity:1;" d="M 9.71875 0.109375 C 9.28125 0.304688 8.078125 1.828125 7.125 3.40625 C 4.5625 7.65625 3.59375 12.796875 4.421875 17.8125 C 4.976562 21.203125 6.617188 24.921875 8.492188 27.054688 C 10.632812 29.492188 13.859375 30.78125 17.054688 30.46875 C 17.570312 30.421875 18.015625 30.40625 18.046875 30.445312 C 18.085938 30.476562 18.15625 31.070312 18.210938 31.757812 C 18.304688 32.851562 18.3125 34.960938 18.25 38.609375 C 18.242188 39.101562 18.273438 39.242188 18.40625 39.421875 C 18.789062 39.9375 19.390625 40.125 19.929688 39.898438 C 20.414062 39.695312 20.632812 39.320312 20.726562 38.53125 C 20.898438 37.03125 20.796875 31.507812 20.578125 30.257812 L 20.53125 30 L 20.90625 30.117188 C 22.289062 30.515625 24.328125 30.625 25.664062 30.359375 C 27.78125 29.945312 29.546875 29.023438 31.023438 27.554688 C 32.125 26.460938 32.796875 25.46875 33.757812 23.476562 C 35.765625 19.335938 36.359375 14.734375 35.46875 10.132812 C 34.859375 6.984375 33.34375 3.710938 31.3125 1.15625 C 30.25 -0.179688 30.164062 -0.203125 28.054688 0.398438 C 25.46875 1.132812 22.625 2.617188 20.671875 4.25 C 20.335938 4.53125 20.03125 4.765625 20.007812 4.765625 C 19.984375 4.765625 19.679688 4.53125 19.335938 4.25 C 17.039062 2.359375 13.921875 0.828125 11.039062 0.15625 C 10.273438 -0.0234375 10.046875 -0.03125 9.71875 0.109375 Z M 11.875 2.984375 C 16.296875 4.390625 20.085938 7.585938 22.335938 11.796875 C 24.257812 15.40625 24.984375 19.867188 24.070312 22.507812 C 23.671875 23.671875 22.890625 24.859375 21.960938 25.726562 C 21.4375 26.203125 20.28125 27.015625 20.171875 26.976562 C 20.148438 26.96875 20 26.3125 19.84375 25.53125 C 19.320312 22.984375 18.609375 20.429688 17.757812 18.070312 L 17.335938 16.890625 L 18.085938 14.75 C 18.710938 12.984375 18.835938 12.5625 18.804688 12.289062 C 18.703125 11.367188 17.640625 10.898438 16.875 11.429688 C 16.5625 11.640625 16.46875 11.804688 16.164062 12.679688 L 15.921875 13.375 L 14.757812 11.023438 C 14.125 9.726562 13.53125 8.5625 13.4375 8.4375 C 12.765625 7.492188 11.304688 7.882812 11.195312 9.039062 C 11.15625 9.390625 11.210938 9.515625 12.085938 11.25 C 13.085938 13.226562 14.023438 15.296875 14.734375 17.109375 C 15.164062 18.203125 16.171875 21.109375 16.132812 21.15625 C 16.125 21.164062 15.515625 20.960938 14.773438 20.703125 C 13.9375 20.414062 13.296875 20.234375 13.09375 20.234375 C 12.5 20.234375 11.96875 20.726562 11.898438 21.34375 C 11.851562 21.75 12.070312 22.265625 12.375 22.460938 C 12.476562 22.53125 13.539062 22.921875 14.734375 23.335938 C 15.9375 23.75 16.929688 24.101562 16.945312 24.109375 C 17.03125 24.1875 17.773438 27.796875 17.710938 27.859375 C 17.695312 27.875 17.34375 27.921875 16.929688 27.96875 C 14.015625 28.296875 11.234375 26.898438 9.515625 24.257812 C 8.25 22.3125 7.328125 19.890625 6.859375 17.265625 C 6.625 15.9375 6.601562 12.851562 6.820312 11.523438 C 7.335938 8.398438 8.5 5.585938 10.28125 3.179688 C 10.71875 2.578125 10.625 2.585938 11.875 2.984375 Z M 29.71875 3.179688 C 31.492188 5.570312 32.664062 8.398438 33.179688 11.523438 C 33.375 12.734375 33.375 15.757812 33.179688 17.023438 C 32.867188 19.007812 32.3125 20.765625 31.445312 22.539062 C 29.75 25.984375 27.671875 27.632812 24.585938 27.96875 C 24.148438 28.015625 23.679688 28.039062 23.53125 28.007812 L 23.265625 27.960938 L 24 27.203125 C 26.023438 25.132812 26.953125 22.820312 26.960938 19.859375 C 26.976562 15.640625 25.25 10.929688 22.390625 7.351562 C 21.695312 6.484375 21.664062 6.617188 22.78125 5.773438 C 24.484375 4.492188 26.5625 3.4375 28.53125 2.859375 C 28.890625 2.75 29.21875 2.664062 29.257812 2.664062 C 29.304688 2.664062 29.507812 2.890625 29.71875 3.179688 Z M 29.71875 3.179688 "/>
</g>
</svg>
