<?xml version="1.0" encoding="UTF-8"?>
<svg xmlns="http://www.w3.org/2000/svg" xmlns:xlink="http://www.w3.org/1999/xlink" width="40px" height="40px" viewBox="0 0 40 40" version="1.1">
<g id="surface1">
<path style=" stroke:none;fill-rule:nonzero;fill:rgb(0%,0%,0%);fill-opacity:1;" d="M 18.203125 0.0859375 C 14.484375 0.445312 10.804688 1.953125 7.921875 4.304688 C 4.257812 7.289062 1.789062 11.578125 1.054688 16.25 C 0.875 17.375 0.8125 19.890625 0.929688 21.0625 C 1.585938 27.507812 5.429688 33.164062 11.179688 36.164062 C 13.570312 37.40625 16.109375 38.109375 18.84375 38.28125 C 20.132812 38.367188 20.304688 38.335938 20.59375 38.039062 C 20.898438 37.71875 20.890625 37.257812 20.5625 36.9375 C 20.328125 36.695312 20.320312 36.695312 19.164062 36.632812 C 14.5625 36.375 10.59375 34.5625 7.375 31.242188 C 3.875 27.625 2.09375 22.539062 2.585938 17.53125 C 3.101562 12.234375 5.96875 7.484375 10.429688 4.53125 C 11.976562 3.515625 13.828125 2.695312 15.625 2.234375 C 17.203125 1.835938 18.320312 1.695312 20 1.695312 C 23.546875 1.695312 26.773438 2.671875 29.6875 4.617188 C 32.929688 6.78125 35.367188 9.96875 36.59375 13.65625 C 38.210938 18.53125 37.625 23.789062 34.984375 28.1875 C 34.765625 28.546875 34.578125 28.976562 34.554688 29.140625 C 34.515625 29.414062 34.539062 29.476562 34.789062 29.726562 C 35.132812 30.070312 35.5 30.09375 35.84375 29.804688 C 36.226562 29.484375 37.140625 27.867188 37.671875 26.5625 C 38.757812 23.914062 39.203125 21.492188 39.117188 18.609375 C 39.070312 16.882812 38.9375 15.90625 38.554688 14.40625 C 36.859375 7.78125 31.742188 2.570312 25.109375 0.703125 C 22.960938 0.101562 20.421875 -0.125 18.203125 0.0859375 Z M 18.203125 0.0859375 "/>
<path style=" stroke:none;fill-rule:nonzero;fill:rgb(0%,0%,0%);fill-opacity:1;" d="M 19.507812 3.515625 C 19.390625 3.609375 19.265625 3.8125 19.21875 3.96875 C 19.109375 4.375 19.109375 18.992188 19.226562 19.398438 C 19.3125 19.726562 19.664062 20 20.007812 20 C 20.117188 20 20.335938 19.914062 20.484375 19.8125 C 21.109375 19.390625 28.984375 13.039062 29.054688 12.898438 C 29.273438 12.492188 29.085938 11.945312 28.65625 11.765625 C 28.179688 11.5625 28.09375 11.617188 24.4375 14.539062 C 22.515625 16.085938 20.921875 17.34375 20.898438 17.34375 C 20.875 17.34375 20.859375 14.398438 20.859375 10.796875 C 20.859375 6.554688 20.828125 4.15625 20.78125 3.96875 C 20.625 3.40625 19.953125 3.164062 19.507812 3.515625 Z M 19.507812 3.515625 "/>
<path style=" stroke:none;fill-rule:nonzero;fill:rgb(0%,0%,0%);fill-opacity:1;" d="M 15.835938 23.476562 C 15.273438 23.6875 14.703125 24.195312 14.429688 24.726562 C 14.25 25.085938 14.148438 25.757812 14.226562 26.0625 C 14.328125 26.414062 14.632812 26.640625 15.007812 26.640625 C 15.421875 26.640625 15.679688 26.390625 15.820312 25.867188 C 15.882812 25.640625 16.007812 25.367188 16.101562 25.265625 C 16.484375 24.859375 17.148438 24.984375 17.398438 25.515625 C 17.515625 25.742188 17.515625 25.859375 17.445312 26.289062 C 17.28125 27.242188 17.070312 27.554688 15.632812 29.015625 C 14.898438 29.75 14.265625 30.453125 14.21875 30.578125 C 14.109375 30.875 14.234375 31.265625 14.507812 31.484375 C 14.695312 31.632812 14.820312 31.640625 16.6875 31.640625 L 18.65625 31.640625 L 18.898438 31.398438 C 19.226562 31.070312 19.234375 30.65625 18.914062 30.296875 C 18.6875 30.039062 18.679688 30.039062 17.859375 30.015625 L 17.023438 29.984375 L 17.671875 29.304688 C 18.40625 28.53125 18.742188 27.960938 18.992188 27.070312 C 19.414062 25.523438 18.960938 24.226562 17.773438 23.609375 C 17.289062 23.359375 16.3125 23.296875 15.835938 23.476562 Z M 15.835938 23.476562 "/>
<path style=" stroke:none;fill-rule:nonzero;fill:rgb(0%,0%,0%);fill-opacity:1;" d="M 22.867188 23.515625 C 22.625 23.710938 19.429688 28.453125 19.242188 28.890625 C 19.09375 29.25 19.226562 29.648438 19.5625 29.851562 C 19.773438 29.984375 19.960938 30 21.140625 30 L 22.484375 30 L 22.515625 30.59375 C 22.539062 31.148438 22.5625 31.203125 22.796875 31.414062 C 23.15625 31.734375 23.570312 31.726562 23.898438 31.398438 L 24.140625 31.15625 L 24.140625 28.84375 L 23.90625 28.601562 L 23.664062 28.367188 L 22.617188 28.34375 L 21.5625 28.320312 L 22.859375 26.367188 C 24.132812 24.460938 24.15625 24.414062 24.117188 24.078125 C 24.070312 23.640625 23.867188 23.429688 23.429688 23.382812 C 23.15625 23.351562 23.039062 23.382812 22.867188 23.515625 Z M 22.867188 23.515625 "/>
<path style=" stroke:none;fill-rule:nonzero;fill:rgb(0%,0%,0%);fill-opacity:1;" d="M 29.460938 23.570312 C 29.320312 23.71875 28.132812 26.3125 25.914062 31.296875 C 24.078125 35.429688 22.554688 38.914062 22.53125 39.039062 C 22.445312 39.484375 22.890625 40 23.359375 40 C 23.632812 40 23.953125 39.765625 24.101562 39.460938 C 24.632812 38.351562 30.765625 24.453125 30.78125 24.335938 C 30.820312 23.976562 30.765625 23.804688 30.554688 23.585938 C 30.234375 23.273438 29.765625 23.265625 29.460938 23.570312 Z M 29.460938 23.570312 "/>
<path style=" stroke:none;fill-rule:nonzero;fill:rgb(0%,0%,0%);fill-opacity:1;" d="M 29.796875 31.695312 C 29.703125 31.710938 29.53125 31.828125 29.414062 31.953125 C 29.09375 32.28125 29.109375 32.742188 29.445312 33.070312 L 29.6875 33.320312 L 30.820312 33.34375 L 31.945312 33.375 L 30.609375 36.039062 C 29.875 37.507812 29.25 38.804688 29.210938 38.921875 C 29.070312 39.421875 29.484375 40 29.984375 40 C 30.5 40 30.53125 39.953125 32.382812 36.25 C 34.203125 32.609375 34.28125 32.421875 34.015625 32.039062 C 33.765625 31.6875 33.492188 31.640625 31.664062 31.648438 C 30.726562 31.65625 29.882812 31.679688 29.796875 31.695312 Z M 29.796875 31.695312 "/>
</g>
</svg>
