<?xml version="1.0" encoding="UTF-8"?>
<svg xmlns="http://www.w3.org/2000/svg" xmlns:xlink="http://www.w3.org/1999/xlink" width="40px" height="40px" viewBox="0 0 40 40" version="1.1">
<g id="surface1">
<path style=" stroke:none;fill-rule:nonzero;fill:rgb(0%,0%,0%);fill-opacity:1;" d="M 12.5 3.898438 L 5.039062 6.609375 L 5.015625 13.601562 C 4.992188 21.40625 5.015625 21.882812 5.507812 23.78125 C 5.835938 25.078125 6.140625 25.890625 6.71875 27.070312 C 7.726562 29.117188 9.28125 31.070312 11.015625 32.46875 C 11.914062 33.1875 19.90625 38.984375 20 38.984375 C 20.15625 38.984375 28.84375 32.617188 29.570312 31.976562 C 32.140625 29.695312 33.992188 26.4375 34.679688 22.976562 C 34.984375 21.460938 35.007812 20.6875 34.984375 13.515625 L 34.960938 6.601562 L 27.5 3.890625 C 23.398438 2.398438 20.023438 1.179688 20 1.179688 C 19.976562 1.179688 16.601562 2.398438 12.5 3.898438 Z M 26.03125 6.023438 C 29.351562 7.234375 32.164062 8.257812 32.289062 8.296875 L 32.5 8.375 L 32.5 14.421875 C 32.5 18.1875 32.46875 20.765625 32.414062 21.234375 C 32.164062 23.523438 31.398438 25.617188 30.09375 27.578125 C 29.65625 28.25 29.234375 28.75 28.445312 29.539062 C 27.46875 30.515625 27.09375 30.804688 23.695312 33.273438 L 20 35.953125 L 16.3125 33.273438 C 12.898438 30.804688 12.539062 30.515625 11.554688 29.539062 C 9.734375 27.710938 8.585938 25.71875 7.960938 23.304688 C 7.523438 21.578125 7.5 21.203125 7.5 14.5 L 7.5 8.382812 L 10.21875 7.390625 C 11.710938 6.851562 14.515625 5.828125 16.445312 5.125 C 18.382812 4.414062 19.96875 3.835938 19.976562 3.835938 C 19.992188 3.828125 22.710938 4.820312 26.03125 6.023438 Z M 26.03125 6.023438 "/>
<path style=" stroke:none;fill-rule:nonzero;fill:rgb(0%,0%,0%);fill-opacity:1;" d="M 21.898438 17.28125 L 18.4375 20.742188 L 14.609375 16.914062 L 13.734375 17.796875 L 12.851562 18.671875 L 18.4375 24.257812 L 27.148438 15.546875 L 26.289062 14.6875 C 25.820312 14.21875 25.414062 13.828125 25.390625 13.828125 C 25.367188 13.828125 23.796875 15.382812 21.898438 17.28125 Z M 21.898438 17.28125 "/>
</g>
</svg>
