<?xml version="1.0" encoding="UTF-8"?>
<svg xmlns="http://www.w3.org/2000/svg" xmlns:xlink="http://www.w3.org/1999/xlink" width="40px" height="40px" viewBox="0 0 40 40" version="1.1">
<g id="surface1">
<path style=" stroke:none;fill-rule:nonzero;fill:rgb(0%,0%,0%);fill-opacity:1;" d="M 25.390625 6.0625 C 25.039062 6.21875 24.859375 6.382812 24.679688 6.734375 C 24.507812 7.078125 24.492188 7.5625 24.640625 7.914062 C 24.703125 8.054688 26.945312 10.351562 29.914062 13.320312 C 32.757812 16.15625 35.078125 18.5 35.078125 18.53125 C 35.078125 18.570312 27.4375 18.59375 18.101562 18.59375 L 1.125 18.59375 L 0.78125 18.765625 C -0.25 19.289062 -0.25 20.710938 0.78125 21.226562 L 1.125 21.40625 L 18.101562 21.40625 C 27.4375 21.40625 35.078125 21.429688 35.078125 21.460938 C 35.078125 21.492188 32.78125 23.789062 29.96875 26.578125 C 26.320312 30.1875 24.8125 31.734375 24.695312 31.976562 C 24.492188 32.398438 24.484375 32.882812 24.679688 33.265625 C 24.859375 33.625 25.039062 33.789062 25.414062 33.945312 C 25.773438 34.09375 26.101562 34.09375 26.46875 33.945312 C 26.867188 33.773438 39.625 21.03125 39.84375 20.578125 C 40.03125 20.195312 40.039062 19.859375 39.882812 19.46875 C 39.710938 19.070312 26.96875 6.3125 26.515625 6.09375 C 26.140625 5.90625 25.765625 5.898438 25.390625 6.0625 Z M 25.390625 6.0625 "/>
</g>
</svg>
