<?xml version="1.0" encoding="UTF-8"?>
<svg xmlns="http://www.w3.org/2000/svg" xmlns:xlink="http://www.w3.org/1999/xlink" width="40px" height="40px" viewBox="0 0 40 40" version="1.1">
<g id="surface1">
<path style=" stroke:none;fill-rule:nonzero;fill:rgb(0%,0%,0%);fill-opacity:1;" d="M 3.046875 0.125 C 2.8125 0.1875 2.429688 0.335938 2.1875 0.453125 C 1.632812 0.726562 0.726562 1.632812 0.453125 2.1875 C -0.03125 3.171875 0 1.976562 0 20 C 0 38.023438 -0.03125 36.828125 0.453125 37.8125 C 0.726562 38.367188 1.632812 39.273438 2.1875 39.546875 C 3.171875 40.03125 1.976562 40 20 40 C 38.023438 40 36.828125 40.03125 37.8125 39.546875 C 38.367188 39.273438 39.273438 38.367188 39.546875 37.8125 C 40.03125 36.828125 40 38.023438 40 20 C 40 1.976562 40.03125 3.171875 39.546875 2.1875 C 39.273438 1.632812 38.367188 0.726562 37.8125 0.453125 C 36.828125 -0.03125 38.03125 0 19.960938 0.0078125 C 5.710938 0.0078125 3.421875 0.0234375 3.046875 0.125 Z M 10.101562 5.59375 C 11.914062 6.1875 12.945312 8.0625 12.460938 9.921875 C 11.960938 11.859375 9.875 13.015625 7.960938 12.421875 C 5.8125 11.765625 4.8125 9.40625 5.8125 7.375 C 6.28125 6.429688 7.304688 5.65625 8.335938 5.46875 C 8.820312 5.382812 9.625 5.4375 10.101562 5.59375 Z M 28.828125 15.859375 C 30.773438 16.421875 32.382812 17.789062 33.28125 19.640625 C 33.984375 21.085938 33.9375 20.546875 33.960938 27.671875 L 33.992188 33.984375 L 27.96875 33.984375 L 27.96875 28.453125 C 27.96875 23.5 27.953125 22.875 27.835938 22.53125 C 27.46875 21.445312 26.578125 20.671875 25.453125 20.46875 C 24.359375 20.265625 23.101562 20.851562 22.476562 21.851562 C 22.023438 22.578125 22.03125 22.429688 22.03125 28.453125 L 22.03125 33.984375 L 16.015625 33.984375 L 16.015625 16.015625 L 22.03125 16.015625 L 22.03125 18.265625 L 22.757812 17.546875 C 23.664062 16.632812 24.679688 16.046875 25.898438 15.734375 C 26.492188 15.578125 28.09375 15.648438 28.828125 15.859375 Z M 12.03125 25 L 12.03125 33.984375 L 6.015625 33.984375 L 6.015625 16.015625 L 12.03125 16.015625 Z M 12.03125 25 "/>
</g>
</svg>
