<?xml version="1.0" encoding="UTF-8"?>
<svg xmlns="http://www.w3.org/2000/svg" xmlns:xlink="http://www.w3.org/1999/xlink" width="40px" height="40px" viewBox="0 0 40 40" version="1.1">
<g id="surface1">
<path style=" stroke:none;fill-rule:nonzero;fill:rgb(0%,0%,0%);fill-opacity:1;" d="M 18.59375 1.375 C 16.601562 1.601562 15.5625 1.820312 14.023438 2.328125 C 13.40625 2.53125 12.40625 2.945312 11.71875 3.289062 C 9.671875 4.3125 8.226562 5.375 6.601562 7.046875 C 5.101562 8.585938 4.132812 9.976562 3.195312 11.914062 C 2.351562 13.664062 1.828125 15.359375 1.507812 17.359375 C 1.320312 18.585938 1.320312 21.398438 1.515625 22.640625 C 2.015625 25.84375 3.21875 28.734375 5.101562 31.242188 C 5.84375 32.242188 7.476562 33.898438 8.46875 34.679688 C 11.039062 36.6875 14.054688 37.976562 17.421875 38.492188 C 18.53125 38.65625 21.242188 38.679688 22.34375 38.53125 C 25.109375 38.148438 27.6875 37.21875 29.976562 35.773438 C 31.070312 35.085938 31.929688 34.398438 33 33.359375 C 36.007812 30.4375 37.835938 26.851562 38.492188 22.578125 C 38.679688 21.328125 38.679688 18.671875 38.492188 17.421875 C 38.171875 15.375 37.648438 13.65625 36.804688 11.90625 C 35.789062 9.8125 34.71875 8.328125 33.03125 6.664062 C 30.171875 3.867188 26.695312 2.125 22.734375 1.523438 C 21.960938 1.40625 19.1875 1.304688 18.59375 1.375 Z M 22.734375 3.75 C 27.578125 4.59375 31.671875 7.421875 34.21875 11.6875 C 34.84375 12.734375 35.484375 14.21875 35.820312 15.382812 C 37.914062 22.664062 34.867188 30.3125 28.335938 34.203125 C 23.398438 37.140625 17.117188 37.226562 12.070312 34.429688 C 7.609375 31.953125 4.640625 27.773438 3.742188 22.695312 C 3.484375 21.234375 3.484375 18.765625 3.742188 17.304688 C 4.648438 12.195312 7.664062 7.976562 12.203125 5.484375 C 13.882812 4.554688 16.226562 3.828125 18.289062 3.601562 C 19.34375 3.476562 21.609375 3.554688 22.734375 3.75 Z M 22.734375 3.75 "/>
<path style=" stroke:none;fill-rule:nonzero;fill:rgb(0%,0%,0%);fill-opacity:1;" d="M 19.296875 8.90625 C 16.460938 9.25 14.148438 11.609375 13.929688 14.390625 L 13.882812 15 L 16.09375 15 L 16.09375 14.703125 C 16.09375 14.015625 16.5 13.03125 17.039062 12.40625 C 18.539062 10.640625 21.460938 10.648438 22.96875 12.40625 C 23.648438 13.210938 23.945312 14.140625 23.890625 15.304688 C 23.8125 16.78125 23.414062 17.484375 21.640625 19.328125 C 20.351562 20.671875 19.757812 21.484375 19.382812 22.4375 C 19.140625 23.03125 18.90625 24.15625 18.90625 24.695312 L 18.90625 25 L 21.09375 25 L 21.09375 24.742188 C 21.09375 24.28125 21.320312 23.40625 21.570312 22.90625 C 21.859375 22.3125 22.28125 21.796875 23.59375 20.4375 C 24.671875 19.3125 25.117188 18.71875 25.507812 17.859375 C 25.953125 16.890625 26.046875 16.429688 26.054688 15.078125 C 26.054688 14.023438 26.03125 13.789062 25.875 13.28125 C 25.203125 11.140625 23.460938 9.492188 21.382812 9.03125 C 20.71875 8.882812 19.90625 8.835938 19.296875 8.90625 Z M 19.296875 8.90625 "/>
<path style=" stroke:none;fill-rule:nonzero;fill:rgb(0%,0%,0%);fill-opacity:1;" d="M 18.75 28.789062 L 18.75 29.921875 L 21.25 29.921875 L 21.25 27.65625 L 18.75 27.65625 Z M 18.75 28.789062 "/>
</g>
</svg>
