<?xml version="1.0" encoding="UTF-8"?>
<svg xmlns="http://www.w3.org/2000/svg" xmlns:xlink="http://www.w3.org/1999/xlink" width="40px" height="40px" viewBox="0 0 40 40" version="1.1">
<g id="surface1">
<path style=" stroke:none;fill-rule:nonzero;fill:rgb(0%,0%,0%);fill-opacity:1;" d="M 18.359375 3.671875 C 12.757812 4.257812 7.773438 7.742188 5.351562 12.75 C 5.046875 13.367188 4.992188 13.5625 5.03125 13.773438 C 5.101562 14.132812 5.453125 14.453125 5.828125 14.5 C 6.335938 14.5625 6.570312 14.351562 7.0625 13.367188 C 8.898438 9.703125 12.3125 6.953125 16.289062 5.914062 C 18.546875 5.320312 20.703125 5.265625 22.984375 5.734375 C 26.992188 6.570312 30.453125 9.0625 32.554688 12.640625 C 33.085938 13.539062 33.484375 14.445312 33.851562 15.59375 C 34.109375 16.382812 34.453125 17.992188 34.453125 18.390625 C 34.453125 18.5 34.148438 18.242188 33.375 17.484375 C 32.1875 16.3125 32 16.210938 31.460938 16.429688 C 31.132812 16.570312 30.9375 16.898438 30.9375 17.320312 C 30.9375 17.59375 31.03125 17.710938 32.914062 19.59375 C 33.992188 20.679688 34.984375 21.625 35.109375 21.695312 C 35.609375 21.960938 35.734375 21.867188 37.835938 19.78125 C 38.90625 18.71875 39.828125 17.757812 39.890625 17.640625 C 40.273438 16.90625 39.453125 16.046875 38.726562 16.414062 C 38.632812 16.460938 38.054688 17 37.445312 17.601562 C 36.71875 18.320312 36.320312 18.664062 36.296875 18.585938 C 36.28125 18.523438 36.226562 18.125 36.171875 17.695312 C 36.054688 16.734375 35.65625 15.132812 35.273438 14.140625 C 33.171875 8.648438 28.273438 4.6875 22.460938 3.789062 C 21.515625 3.640625 19.273438 3.578125 18.359375 3.671875 Z M 18.359375 3.671875 "/>
<path style=" stroke:none;fill-rule:nonzero;fill:rgb(0%,0%,0%);fill-opacity:1;" d="M 20.648438 12.742188 C 19.46875 12.851562 18.195312 13.3125 17.203125 14 C 16.3125 14.617188 15.257812 15.851562 14.796875 16.8125 C 14.664062 17.101562 14.648438 17.109375 14.226562 17.109375 C 13.28125 17.109375 12.851562 17.40625 12.851562 18.054688 C 12.851562 18.375 12.890625 18.46875 13.101562 18.679688 C 13.289062 18.875 13.429688 18.9375 13.734375 18.96875 L 14.117188 19 L 14.117188 20.9375 L 13.890625 20.9375 C 13.59375 20.9375 13.203125 21.109375 13.007812 21.328125 C 12.898438 21.445312 12.851562 21.609375 12.851562 21.875 C 12.851562 22.507812 13.28125 22.8125 14.164062 22.8125 C 14.65625 22.8125 14.671875 22.820312 14.773438 23.0625 C 14.976562 23.5625 15.773438 24.65625 16.304688 25.164062 C 17.6875 26.5 19.4375 27.21875 21.328125 27.210938 C 22.992188 27.210938 24.429688 26.601562 25.554688 25.414062 C 26.171875 24.765625 26.234375 24.359375 25.796875 23.890625 C 25.585938 23.664062 25.195312 23.546875 24.929688 23.632812 C 24.84375 23.65625 24.46875 23.945312 24.09375 24.265625 C 23.71875 24.585938 23.179688 24.960938 22.898438 25.101562 C 22.398438 25.34375 22.367188 25.351562 21.328125 25.351562 C 20.375 25.34375 20.210938 25.328125 19.648438 25.125 C 18.578125 24.75 17.578125 24.023438 16.96875 23.171875 L 16.710938 22.8125 L 18.453125 22.8125 C 20.453125 22.8125 20.632812 22.773438 20.890625 22.234375 C 21.023438 21.953125 21.03125 21.898438 20.929688 21.617188 C 20.867188 21.445312 20.71875 21.226562 20.601562 21.140625 C 20.390625 20.984375 20.265625 20.976562 18.21875 20.953125 C 16.65625 20.9375 16.039062 20.898438 16 20.835938 C 15.929688 20.726562 15.914062 19.289062 15.984375 19.109375 C 16.023438 19 16.289062 18.984375 18.117188 18.984375 C 20.492188 18.984375 20.625 18.953125 20.890625 18.40625 C 21.023438 18.125 21.03125 18.070312 20.929688 17.789062 C 20.867188 17.617188 20.71875 17.398438 20.601562 17.3125 C 20.390625 17.15625 20.257812 17.148438 18.585938 17.125 C 17.601562 17.109375 16.796875 17.0625 16.796875 17.03125 C 16.796875 16.898438 17.59375 16.007812 17.992188 15.695312 C 19.523438 14.484375 21.796875 14.171875 23.1875 14.976562 C 23.375 15.085938 23.804688 15.414062 24.148438 15.703125 C 24.492188 16 24.84375 16.265625 24.929688 16.289062 C 25.5 16.476562 26.171875 15.867188 26.0625 15.265625 C 25.945312 14.679688 24.609375 13.554688 23.523438 13.132812 C 22.546875 12.757812 21.703125 12.648438 20.648438 12.742188 Z M 20.648438 12.742188 "/>
<path style=" stroke:none;fill-rule:nonzero;fill:rgb(0%,0%,0%);fill-opacity:1;" d="M 4.21875 18.210938 C 3.984375 18.304688 0.273438 21.984375 0.109375 22.28125 C -0.273438 23.007812 0.546875 23.875 1.273438 23.507812 C 1.367188 23.460938 1.945312 22.929688 2.554688 22.320312 C 3.8125 21.078125 3.671875 21.070312 3.835938 22.34375 C 4.171875 25.0625 5.460938 28.007812 7.328125 30.320312 C 8.007812 31.164062 9.53125 32.609375 10.398438 33.21875 C 14.21875 35.9375 18.84375 36.921875 23.351562 35.96875 C 27.179688 35.171875 30.726562 32.914062 33.039062 29.804688 C 34.0625 28.429688 34.945312 26.820312 34.945312 26.3125 C 34.945312 25.78125 34.59375 25.445312 34.046875 25.445312 C 33.59375 25.445312 33.40625 25.632812 32.9375 26.539062 C 31.421875 29.484375 29.148438 31.695312 26.171875 33.117188 C 21.601562 35.296875 16.132812 34.882812 11.898438 32.039062 C 8.546875 29.78125 6.367188 26.40625 5.65625 22.382812 C 5.460938 21.25 5.429688 21.25 6.585938 22.398438 C 7.148438 22.960938 7.695312 23.460938 7.789062 23.507812 C 8.53125 23.882812 9.34375 23.023438 8.953125 22.28125 C 8.78125 21.960938 5.070312 18.296875 4.820312 18.203125 C 4.554688 18.109375 4.476562 18.109375 4.21875 18.210938 Z M 4.21875 18.210938 "/>
</g>
</svg>
