<?xml version="1.0" encoding="UTF-8"?>
<svg xmlns="http://www.w3.org/2000/svg" xmlns:xlink="http://www.w3.org/1999/xlink" width="40px" height="40px" viewBox="0 0 40 40" version="1.1">
<g id="surface1">
<path style=" stroke:none;fill-rule:nonzero;fill:rgb(0%,0%,0%);fill-opacity:1;" d="M 4.765625 6.921875 C 3.140625 7.265625 1.789062 8.554688 1.367188 10.15625 C 1.265625 10.523438 1.25 11.96875 1.25 19.601562 C 1.25 29.539062 1.226562 29.054688 1.742188 30.039062 C 1.882812 30.304688 2.234375 30.757812 2.546875 31.078125 C 2.992188 31.523438 3.25 31.710938 3.765625 31.945312 C 4.117188 32.117188 4.625 32.289062 4.875 32.335938 C 5.203125 32.398438 9.796875 32.421875 19.992188 32.421875 C 36.078125 32.421875 35.179688 32.445312 36.226562 31.945312 C 36.898438 31.632812 37.820312 30.71875 38.1875 30.03125 C 38.742188 28.96875 38.710938 29.554688 38.710938 19.609375 C 38.710938 9.664062 38.742188 10.25 38.1875 9.1875 C 37.8125 8.476562 36.945312 7.640625 36.234375 7.304688 C 35.109375 6.765625 36.117188 6.796875 19.921875 6.804688 C 7.664062 6.804688 5.1875 6.828125 4.765625 6.921875 Z M 35.320312 8.835938 C 35.5625 8.953125 35.90625 9.171875 36.085938 9.335938 C 36.414062 9.640625 36.921875 10.546875 36.851562 10.71875 C 36.820312 10.8125 20.078125 20.1875 19.960938 20.179688 C 19.898438 20.171875 3.179688 10.867188 3.101562 10.789062 C 3 10.6875 3.328125 9.9375 3.632812 9.570312 C 3.953125 9.171875 4.476562 8.84375 4.992188 8.703125 C 5.273438 8.625 8.578125 8.609375 20.117188 8.617188 L 34.882812 8.632812 Z M 11.296875 17.429688 C 17.273438 20.765625 19.65625 22.054688 19.882812 22.085938 C 20.1875 22.125 20.617188 21.890625 28.554688 17.46875 L 36.914062 12.8125 L 36.9375 20.367188 C 36.953125 25.75 36.9375 28.0625 36.875 28.398438 C 36.703125 29.3125 36.179688 29.976562 35.320312 30.382812 L 34.882812 30.585938 L 20.195312 30.609375 C 10.085938 30.617188 5.382812 30.601562 5.109375 30.546875 C 4.273438 30.375 3.476562 29.671875 3.148438 28.828125 C 3.015625 28.5 3.007812 27.898438 2.984375 20.640625 C 2.976562 16.335938 2.976562 12.8125 3 12.8125 C 3.015625 12.8125 6.75 14.890625 11.296875 17.429688 Z M 11.296875 17.429688 "/>
</g>
</svg>
