<?xml version="1.0" encoding="UTF-8"?>
<svg xmlns="http://www.w3.org/2000/svg" xmlns:xlink="http://www.w3.org/1999/xlink" width="200px" height="200px" viewBox="0 0 200 200" version="1.1">
<g id="surface1">
<path style=" stroke:none;fill-rule:nonzero;fill:rgb(0%,0%,0%);fill-opacity:1;" d="M 0 47.265625 L 0 70.703125 L 24.609375 70.703125 L 55.859375 23.828125 L 0 23.828125 Z M 0 47.265625 "/>
<path style=" stroke:none;fill-rule:nonzero;fill:rgb(0%,0%,0%);fill-opacity:1;" d="M 54.296875 47.265625 L 38.671875 70.703125 L 59.765625 70.703125 L 91.015625 23.828125 L 69.921875 23.828125 Z M 54.296875 47.265625 "/>
<path style=" stroke:none;fill-rule:nonzero;fill:rgb(0%,0%,0%);fill-opacity:1;" d="M 89.453125 47.265625 L 73.828125 70.703125 L 94.921875 70.703125 L 126.171875 23.828125 L 105.078125 23.828125 Z M 89.453125 47.265625 "/>
<path style=" stroke:none;fill-rule:nonzero;fill:rgb(0%,0%,0%);fill-opacity:1;" d="M 124.609375 47.265625 L 108.984375 70.703125 L 130.078125 70.703125 L 161.328125 23.828125 L 140.234375 23.828125 Z M 124.609375 47.265625 "/>
<path style=" stroke:none;fill-rule:nonzero;fill:rgb(0%,0%,0%);fill-opacity:1;" d="M 159.765625 47.265625 L 144.140625 70.703125 L 200 70.703125 L 200 23.828125 L 175.390625 23.828125 Z M 159.765625 47.265625 "/>
<path style=" stroke:none;fill-rule:nonzero;fill:rgb(0%,0%,0%);fill-opacity:1;" d="M 23.828125 129.296875 L 23.828125 176.171875 L 35.546875 176.171875 L 35.546875 82.421875 L 23.828125 82.421875 Z M 23.828125 129.296875 "/>
<path style=" stroke:none;fill-rule:nonzero;fill:rgb(0%,0%,0%);fill-opacity:1;" d="M 84.960938 96.5625 C 82.1875 104.375 79.882812 110.976562 79.765625 111.210938 C 79.648438 111.601562 83.867188 111.71875 100 111.71875 C 116.132812 111.71875 120.351562 111.601562 120.234375 111.210938 C 120.117188 110.976562 117.8125 104.375 115.039062 96.5625 L 110 82.421875 L 90 82.421875 Z M 84.960938 96.5625 "/>
<path style=" stroke:none;fill-rule:nonzero;fill:rgb(0%,0%,0%);fill-opacity:1;" d="M 164.453125 129.296875 L 164.453125 176.171875 L 176.171875 176.171875 L 176.171875 82.421875 L 164.453125 82.421875 Z M 164.453125 129.296875 "/>
<path style=" stroke:none;fill-rule:nonzero;fill:rgb(0%,0%,0%);fill-opacity:1;" d="M 75.195312 123.90625 C 73.867188 127.578125 69.140625 140.820312 69.140625 140.898438 C 69.140625 140.976562 83.046875 141.015625 100 141.015625 C 116.992188 141.015625 130.859375 140.976562 130.859375 140.898438 C 130.859375 140.859375 129.492188 136.953125 127.773438 132.226562 L 124.6875 123.632812 L 100.039062 123.515625 C 80.507812 123.4375 75.3125 123.515625 75.195312 123.90625 Z M 75.195312 123.90625 "/>
<path style=" stroke:none;fill-rule:nonzero;fill:rgb(0%,0%,0%);fill-opacity:1;" d="M 63.75 155.976562 C 63.085938 157.734375 62.148438 160.390625 61.679688 161.835938 L 60.742188 164.453125 L 47.265625 164.453125 L 47.265625 176.171875 L 152.734375 176.171875 L 152.734375 164.453125 L 139.257812 164.453125 L 138.320312 161.835938 C 137.851562 160.390625 136.914062 157.734375 136.25 155.976562 L 135.078125 152.734375 L 64.921875 152.734375 Z M 63.75 155.976562 "/>
</g>
</svg>
