<?xml version="1.0" encoding="UTF-8"?>
<svg xmlns="http://www.w3.org/2000/svg" xmlns:xlink="http://www.w3.org/1999/xlink" width="35px" height="35px" viewBox="0 0 35 35" version="1.1">
<g id="surface1">
<path style=" stroke:none;fill-rule:nonzero;fill:rgb(0%,0%,0%);fill-opacity:1;" d="M 15.824219 0.0742188 C 11.742188 0.492188 8.023438 2.25 5.140625 5.125 C -1.710938 11.960938 -1.710938 23.039062 5.140625 29.875 C 7.914062 32.640625 11.300781 34.304688 15.347656 34.875 C 16.160156 34.992188 18.847656 34.984375 19.6875 34.871094 C 23.652344 34.324219 27.117188 32.621094 29.875 29.859375 C 32.632812 27.089844 34.304688 23.695312 34.875 19.652344 C 34.992188 18.847656 34.992188 16.152344 34.875 15.347656 C 34.304688 11.300781 32.632812 7.902344 29.867188 5.132812 C 27.160156 2.425781 23.773438 0.730469 19.925781 0.164062 C 19.09375 0.0390625 16.664062 -0.015625 15.824219 0.0742188 Z M 19.722656 2.90625 C 23.863281 3.546875 27.5 5.871094 29.804688 9.351562 C 32.539062 13.46875 33.015625 18.75 31.082031 23.269531 C 29.039062 28.035156 24.8125 31.300781 19.652344 32.109375 C 18.632812 32.273438 16.324219 32.265625 15.320312 32.109375 C 8.8125 31.054688 3.902344 26.148438 2.890625 19.652344 C 2.726562 18.621094 2.726562 16.378906 2.890625 15.347656 C 3.546875 11.15625 5.824219 7.554688 9.289062 5.234375 C 11.355469 3.855469 13.625 3.054688 16.304688 2.773438 C 16.859375 2.71875 19.058594 2.804688 19.722656 2.90625 Z M 19.722656 2.90625 "/>
<path style=" stroke:none;fill-rule:nonzero;fill:rgb(0%,0%,0%);fill-opacity:1;" d="M 16.890625 6.863281 C 16.105469 7.144531 15.625 8.09375 15.859375 8.921875 C 15.960938 9.296875 16.390625 9.796875 16.773438 9.992188 C 17.15625 10.199219 17.835938 10.199219 18.226562 10 C 18.851562 9.671875 19.257812 8.96875 19.1875 8.3125 C 19.09375 7.390625 18.390625 6.761719 17.460938 6.773438 C 17.273438 6.773438 17.023438 6.816406 16.890625 6.863281 Z M 16.890625 6.863281 "/>
<path style=" stroke:none;fill-rule:nonzero;fill:rgb(0%,0%,0%);fill-opacity:1;" d="M 14.253906 13.5625 C 13.953125 13.691406 13.546875 14.171875 13.492188 14.457031 C 13.378906 15.109375 13.644531 15.734375 14.171875 16.007812 C 14.410156 16.140625 14.59375 16.167969 15.296875 16.1875 L 16.132812 16.214844 L 16.132812 24.199219 L 15.347656 24.199219 C 14.785156 24.199219 14.476562 24.234375 14.300781 24.300781 C 13.1875 24.773438 13.1875 26.359375 14.300781 26.832031 C 14.683594 26.988281 20.316406 26.988281 20.699219 26.832031 C 21.609375 26.449219 21.828125 25.230469 21.109375 24.5625 C 20.808594 24.273438 20.492188 24.199219 19.652344 24.199219 L 18.867188 24.199219 L 18.867188 19.378906 C 18.867188 15.183594 18.851562 14.527344 18.765625 14.300781 C 18.628906 13.980469 18.421875 13.761719 18.101562 13.597656 C 17.867188 13.480469 17.683594 13.46875 16.152344 13.46875 C 14.910156 13.472656 14.402344 13.492188 14.253906 13.5625 Z M 14.253906 13.5625 "/>
</g>
</svg>
