<?xml version="1.0" encoding="UTF-8"?>
<svg xmlns="http://www.w3.org/2000/svg" xmlns:xlink="http://www.w3.org/1999/xlink" width="40px" height="40px" viewBox="0 0 40 40" version="1.1">
<g id="surface1">
<path style=" stroke:none;fill-rule:nonzero;fill:rgb(0%,0%,0%);fill-opacity:1;" d="M 31.015625 0.117188 C 29.015625 0.484375 27.304688 1.539062 26.140625 3.125 C 25.65625 3.78125 25.234375 4.617188 25.234375 4.921875 C 25.234375 5.398438 25.835938 5.648438 26.171875 5.3125 C 26.257812 5.226562 26.4375 4.945312 26.570312 4.671875 C 27.507812 2.820312 29.375 1.523438 31.523438 1.242188 C 33.578125 0.976562 35.570312 1.703125 37.046875 3.265625 C 39.578125 5.953125 39.328125 9.90625 36.375 13.984375 C 35.492188 15.203125 33.320312 17.554688 32.476562 18.203125 L 32.265625 18.375 L 30.867188 16.976562 C 28.90625 15.023438 27.867188 13.65625 26.929688 11.820312 C 26.265625 10.515625 25.9375 9.398438 25.820312 8.023438 C 25.78125 7.570312 25.726562 7.367188 25.617188 7.257812 C 25.429688 7.070312 25.070312 7.070312 24.835938 7.257812 C 24.664062 7.398438 24.648438 7.460938 24.671875 8.023438 C 24.75 10.367188 25.875 12.945312 27.953125 15.546875 C 28.28125 15.953125 28.703125 16.460938 28.898438 16.664062 C 29.226562 17.023438 29.242188 17.039062 29.070312 17.085938 C 28.679688 17.1875 27.804688 17.664062 27.5 17.9375 C 26.515625 18.828125 26.695312 20.03125 27.929688 20.773438 C 28.984375 21.414062 30.460938 21.734375 32.304688 21.734375 C 35.53125 21.742188 37.734375 20.703125 37.734375 19.1875 C 37.734375 18.703125 37.570312 18.367188 37.140625 17.96875 C 36.8125 17.664062 35.789062 17.109375 35.570312 17.109375 C 35.375 17.109375 35.476562 16.9375 36.015625 16.320312 C 38.835938 13.125 40.234375 9.726562 39.921875 6.859375 C 39.570312 3.648438 37.242188 1 34.117188 0.226562 C 33.28125 0.0234375 31.804688 -0.03125 31.015625 0.117188 Z M 30.875 18.648438 C 31.726562 19.429688 32.085938 19.6875 32.34375 19.6875 C 32.546875 19.6875 32.71875 19.554688 34.101562 18.328125 L 34.445312 18.023438 L 34.820312 18.117188 C 35.304688 18.242188 35.976562 18.546875 36.304688 18.796875 C 36.65625 19.070312 36.640625 19.296875 36.242188 19.632812 C 35.5625 20.21875 34.085938 20.570312 32.304688 20.570312 C 30.523438 20.570312 29.039062 20.210938 28.351562 19.625 C 27.859375 19.203125 27.96875 18.90625 28.75 18.507812 C 29.140625 18.3125 29.890625 18.054688 30.09375 18.054688 C 30.164062 18.046875 30.515625 18.3125 30.875 18.648438 Z M 30.875 18.648438 "/>
<path style=" stroke:none;fill-rule:nonzero;fill:rgb(0%,0%,0%);fill-opacity:1;" d="M 31.164062 4.484375 C 30.539062 4.734375 30.226562 4.945312 29.820312 5.382812 C 27.976562 7.351562 29.09375 10.554688 31.796875 11.03125 C 33.429688 11.3125 35.15625 10.1875 35.585938 8.546875 C 36.039062 6.789062 35.070312 5.023438 33.320312 4.421875 C 32.742188 4.226562 31.710938 4.257812 31.164062 4.484375 Z M 33.242188 5.65625 C 34.640625 6.304688 34.953125 8.164062 33.851562 9.265625 C 33.429688 9.6875 32.960938 9.875 32.304688 9.875 C 31.632812 9.875 31.164062 9.679688 30.710938 9.21875 C 29.570312 8.046875 30.085938 6.015625 31.640625 5.539062 C 32.070312 5.414062 32.835938 5.460938 33.242188 5.65625 Z M 33.242188 5.65625 "/>
<path style=" stroke:none;fill-rule:nonzero;fill:rgb(0%,0%,0%);fill-opacity:1;" d="M 8.320312 12.140625 C 4.679688 12.742188 1.671875 15.304688 0.515625 18.789062 C -0.101562 20.648438 -0.101562 22.929688 0.515625 25.085938 C 1.257812 27.6875 3.023438 30.625 5.484375 33.367188 C 5.828125 33.75 6.101562 34.078125 6.085938 34.101562 C 6.070312 34.117188 5.757812 34.234375 5.398438 34.367188 C 3.460938 35.078125 2.539062 36.296875 3.046875 37.476562 C 3.578125 38.71875 5.539062 39.617188 8.375 39.921875 C 11.445312 40.25 15 39.445312 16.179688 38.15625 C 16.703125 37.585938 16.867188 36.78125 16.59375 36.132812 C 16.320312 35.460938 15.359375 34.765625 14.101562 34.304688 L 13.523438 34.09375 L 14.046875 33.507812 C 14.585938 32.914062 15.71875 31.53125 15.960938 31.171875 C 16.226562 30.78125 16.070312 30.273438 15.664062 30.234375 C 15.304688 30.195312 15.203125 30.273438 14.476562 31.1875 C 13.296875 32.65625 11.820312 34.203125 10.335938 35.523438 L 9.84375 35.953125 L 9.476562 35.65625 C 8.84375 35.140625 6.976562 33.289062 6.21875 32.421875 C 1.523438 27.0625 0.101562 22.140625 2.070312 18.078125 C 4.070312 13.945312 8.945312 12.125 13.21875 13.90625 C 14.5625 14.460938 16.101562 15.726562 16.929688 16.953125 C 18.054688 18.625 18.492188 20.1875 18.414062 22.226562 C 18.34375 24.03125 17.9375 25.429688 16.898438 27.484375 C 16.210938 28.835938 16.171875 29.023438 16.507812 29.257812 C 16.789062 29.453125 17.070312 29.40625 17.3125 29.117188 C 17.640625 28.726562 18.640625 26.625 18.953125 25.664062 C 19.109375 25.1875 19.304688 24.507812 19.382812 24.140625 C 19.585938 23.242188 19.664062 21.46875 19.53125 20.53125 C 18.976562 16.414062 15.867188 13.085938 11.757812 12.226562 C 10.9375 12.046875 9.132812 12.007812 8.320312 12.140625 Z M 7.71875 35.648438 C 8.9375 36.804688 9.53125 37.265625 9.8125 37.265625 C 10.109375 37.265625 10.585938 36.90625 11.8125 35.773438 L 12.5625 35.078125 L 13.257812 35.28125 C 14.671875 35.6875 15.546875 36.273438 15.546875 36.8125 C 15.546875 37.601562 13.742188 38.453125 11.484375 38.710938 C 10.945312 38.773438 10.21875 38.828125 9.875 38.828125 C 8.617188 38.828125 6.859375 38.570312 5.976562 38.257812 C 4.90625 37.875 4.0625 37.25 4.0625 36.851562 C 4.0625 36.351562 5.0625 35.65625 6.335938 35.28125 C 6.695312 35.171875 7.015625 35.085938 7.054688 35.085938 C 7.085938 35.078125 7.382812 35.335938 7.71875 35.648438 Z M 7.71875 35.648438 "/>
<path style=" stroke:none;fill-rule:nonzero;fill:rgb(0%,0%,0%);fill-opacity:1;" d="M 8.78125 17.703125 C 8.523438 17.765625 8.054688 17.96875 7.734375 18.148438 C 7.265625 18.414062 7.140625 18.523438 7.078125 18.726562 C 7.023438 18.921875 7.039062 19.023438 7.140625 19.179688 C 7.359375 19.507812 7.609375 19.507812 8.234375 19.195312 C 8.898438 18.859375 9.28125 18.75 9.804688 18.75 C 11.007812 18.75 12.09375 19.445312 12.609375 20.546875 C 12.828125 21.007812 12.851562 21.125 12.851562 21.835938 C 12.851562 22.546875 12.828125 22.664062 12.609375 23.125 C 11.671875 25.070312 9.164062 25.5 7.640625 23.976562 C 6.9375 23.273438 6.625 22.273438 6.796875 21.273438 C 6.882812 20.773438 6.882812 20.6875 6.765625 20.507812 C 6.539062 20.164062 6.046875 20.15625 5.8125 20.5 C 5.75 20.601562 5.65625 20.976562 5.609375 21.335938 C 5.4375 22.625 5.867188 23.84375 6.828125 24.8125 C 9.507812 27.492188 14.054688 25.632812 14.0625 21.84375 C 14.0625 20.65625 13.65625 19.671875 12.8125 18.828125 C 11.757812 17.773438 10.257812 17.351562 8.78125 17.703125 Z M 8.78125 17.703125 "/>
<path style=" stroke:none;fill-rule:nonzero;fill:rgb(0%,0%,0%);fill-opacity:1;" d="M 23.929688 18.65625 C 23.570312 18.734375 23.359375 18.9375 23.359375 19.210938 C 23.359375 19.523438 23.585938 19.773438 23.867188 19.789062 C 24.890625 19.828125 25.257812 19.679688 25.257812 19.226562 C 25.257812 18.859375 25.015625 18.65625 24.554688 18.625 C 24.351562 18.617188 24.0625 18.632812 23.929688 18.65625 Z M 23.929688 18.65625 "/>
<path style=" stroke:none;fill-rule:nonzero;fill:rgb(0%,0%,0%);fill-opacity:1;" d="M 21.546875 19.734375 C 21.234375 19.898438 20.78125 20.53125 20.78125 20.789062 C 20.78125 21.09375 21.03125 21.328125 21.359375 21.328125 C 21.585938 21.328125 21.6875 21.257812 22.023438 20.890625 C 22.484375 20.382812 22.539062 20.109375 22.226562 19.804688 C 22.015625 19.585938 21.851562 19.5625 21.546875 19.734375 Z M 21.546875 19.734375 "/>
<path style=" stroke:none;fill-rule:nonzero;fill:rgb(0%,0%,0%);fill-opacity:1;" d="M 20.46875 22.398438 C 20.164062 22.507812 20.078125 22.679688 20.078125 23.164062 C 20.078125 23.726562 20.195312 24.109375 20.390625 24.21875 C 20.625 24.34375 20.929688 24.304688 21.101562 24.132812 C 21.25 23.984375 21.265625 23.898438 21.234375 23.351562 C 21.21875 22.867188 21.179688 22.703125 21.054688 22.585938 C 20.875 22.414062 20.640625 22.335938 20.46875 22.398438 Z M 20.46875 22.398438 "/>
<path style=" stroke:none;fill-rule:nonzero;fill:rgb(0%,0%,0%);fill-opacity:1;" d="M 21.421875 25.3125 C 21.148438 25.570312 21.195312 25.929688 21.546875 26.257812 C 22.148438 26.835938 22.40625 26.914062 22.765625 26.632812 C 22.9375 26.5 22.96875 26.414062 22.953125 26.1875 C 22.929688 25.945312 22.859375 25.84375 22.460938 25.53125 C 21.953125 25.117188 21.695312 25.0625 21.421875 25.3125 Z M 21.421875 25.3125 "/>
<path style=" stroke:none;fill-rule:nonzero;fill:rgb(0%,0%,0%);fill-opacity:1;" d="M 24.453125 26.265625 C 23.90625 26.46875 23.929688 27.140625 24.492188 27.328125 C 24.882812 27.460938 25.585938 27.398438 25.789062 27.21875 C 25.992188 27.039062 25.984375 26.554688 25.789062 26.375 C 25.59375 26.195312 24.820312 26.140625 24.453125 26.265625 Z M 24.453125 26.265625 "/>
<path style=" stroke:none;fill-rule:nonzero;fill:rgb(0%,0%,0%);fill-opacity:1;" d="M 27.609375 26.226562 C 27.1875 26.304688 27.015625 26.890625 27.320312 27.195312 C 27.523438 27.398438 28.210938 27.46875 28.632812 27.328125 C 28.992188 27.210938 29.140625 26.929688 29.015625 26.578125 C 28.90625 26.257812 28.265625 26.09375 27.609375 26.226562 Z M 27.609375 26.226562 "/>
<path style=" stroke:none;fill-rule:nonzero;fill:rgb(0%,0%,0%);fill-opacity:1;" d="M 30.679688 26.25 C 30.242188 26.382812 30.09375 26.851562 30.382812 27.164062 C 30.710938 27.507812 31.75 27.492188 32.03125 27.132812 C 32.234375 26.875 32.226562 26.695312 32.007812 26.445312 C 31.867188 26.273438 31.75 26.234375 31.367188 26.210938 C 31.109375 26.1875 30.796875 26.210938 30.679688 26.25 Z M 30.679688 26.25 "/>
<path style=" stroke:none;fill-rule:nonzero;fill:rgb(0%,0%,0%);fill-opacity:1;" d="M 33.75 26.273438 C 33.203125 26.460938 33.226562 27.140625 33.789062 27.328125 C 34.210938 27.46875 34.898438 27.398438 35.101562 27.195312 C 35.296875 27 35.296875 26.585938 35.101562 26.398438 C 34.914062 26.21875 34.117188 26.140625 33.75 26.273438 Z M 33.75 26.273438 "/>
<path style=" stroke:none;fill-rule:nonzero;fill:rgb(0%,0%,0%);fill-opacity:1;" d="M 36.492188 27.078125 C 36.171875 27.484375 36.304688 27.757812 37.015625 28.210938 C 37.46875 28.5 37.75 28.507812 37.960938 28.234375 C 38.265625 27.84375 38.171875 27.59375 37.570312 27.1875 C 37.023438 26.8125 36.726562 26.78125 36.492188 27.078125 Z M 36.492188 27.078125 "/>
<path style=" stroke:none;fill-rule:nonzero;fill:rgb(0%,0%,0%);fill-opacity:1;" d="M 38.75 29.164062 C 38.34375 29.367188 38.320312 29.695312 38.671875 30.5 C 38.90625 31.046875 39.429688 31.125 39.734375 30.65625 C 39.867188 30.460938 39.867188 30.429688 39.6875 29.914062 C 39.445312 29.1875 39.15625 28.960938 38.75 29.164062 Z M 38.75 29.164062 "/>
<path style=" stroke:none;fill-rule:nonzero;fill:rgb(0%,0%,0%);fill-opacity:1;" d="M 38.992188 32.242188 C 38.789062 32.414062 38.546875 33.3125 38.625 33.617188 C 38.65625 33.765625 38.757812 33.875 38.921875 33.9375 C 39.367188 34.132812 39.632812 33.929688 39.8125 33.273438 C 39.960938 32.6875 39.953125 32.523438 39.726562 32.304688 C 39.507812 32.078125 39.226562 32.054688 38.992188 32.242188 Z M 38.992188 32.242188 "/>
<path style=" stroke:none;fill-rule:nonzero;fill:rgb(0%,0%,0%);fill-opacity:1;" d="M 37.601562 34.890625 C 37.25 35.070312 36.71875 35.664062 36.71875 35.882812 C 36.71875 36.132812 37.03125 36.40625 37.320312 36.40625 C 37.609375 36.40625 38.3125 35.859375 38.421875 35.554688 C 38.601562 35.046875 38.101562 34.648438 37.601562 34.890625 Z M 37.601562 34.890625 "/>
<path style=" stroke:none;fill-rule:nonzero;fill:rgb(0%,0%,0%);fill-opacity:1;" d="M 34.515625 36.164062 C 34.015625 36.226562 33.8125 36.40625 33.84375 36.773438 C 33.882812 37.234375 34.148438 37.375 34.84375 37.304688 C 35.5 37.242188 35.703125 37.09375 35.703125 36.6875 C 35.703125 36.492188 35.648438 36.375 35.5 36.257812 C 35.289062 36.09375 35.179688 36.078125 34.515625 36.164062 Z M 34.515625 36.164062 "/>
<path style=" stroke:none;fill-rule:nonzero;fill:rgb(0%,0%,0%);fill-opacity:1;" d="M 24.921875 36.226562 C 24.515625 36.382812 24.390625 36.890625 24.6875 37.1875 C 24.820312 37.320312 24.945312 37.34375 25.46875 37.34375 C 26.195312 37.34375 26.40625 37.21875 26.40625 36.773438 C 26.40625 36.367188 26.1875 36.21875 25.5625 36.195312 C 25.273438 36.1875 24.984375 36.195312 24.921875 36.226562 Z M 24.921875 36.226562 "/>
<path style=" stroke:none;fill-rule:nonzero;fill:rgb(0%,0%,0%);fill-opacity:1;" d="M 27.914062 36.265625 C 27.539062 36.445312 27.515625 37.070312 27.882812 37.257812 C 27.96875 37.304688 28.296875 37.34375 28.617188 37.34375 C 29.117188 37.34375 29.210938 37.320312 29.359375 37.164062 C 29.585938 36.921875 29.578125 36.601562 29.335938 36.367188 C 29.171875 36.195312 29.078125 36.171875 28.617188 36.179688 C 28.328125 36.179688 28.007812 36.21875 27.914062 36.265625 Z M 27.914062 36.265625 "/>
<path style=" stroke:none;fill-rule:nonzero;fill:rgb(0%,0%,0%);fill-opacity:1;" d="M 30.898438 36.367188 C 30.789062 36.46875 30.703125 36.648438 30.703125 36.757812 C 30.703125 36.867188 30.789062 37.046875 30.898438 37.148438 C 31.0625 37.320312 31.15625 37.34375 31.632812 37.34375 C 31.929688 37.34375 32.234375 37.320312 32.304688 37.296875 C 32.492188 37.21875 32.664062 36.828125 32.609375 36.601562 C 32.53125 36.28125 32.296875 36.171875 31.65625 36.171875 C 31.15625 36.171875 31.0625 36.195312 30.898438 36.367188 Z M 30.898438 36.367188 "/>
<path style=" stroke:none;fill-rule:nonzero;fill:rgb(0%,0%,0%);fill-opacity:1;" d="M 18.570312 36.335938 C 18.195312 36.554688 18.273438 37.195312 18.6875 37.335938 C 19.242188 37.53125 20.0625 37.382812 20.1875 37.070312 C 20.28125 36.820312 20.234375 36.585938 20.054688 36.421875 C 19.898438 36.273438 19.78125 36.25 19.289062 36.25 C 18.96875 36.25 18.648438 36.289062 18.570312 36.335938 Z M 18.570312 36.335938 "/>
<path style=" stroke:none;fill-rule:nonzero;fill:rgb(0%,0%,0%);fill-opacity:1;" d="M 21.5625 36.421875 C 21.359375 36.640625 21.359375 36.953125 21.5625 37.171875 C 21.882812 37.515625 22.875 37.5 23.1875 37.148438 C 23.398438 36.898438 23.40625 36.71875 23.195312 36.453125 C 23.046875 36.265625 22.992188 36.25 22.382812 36.25 C 21.804688 36.25 21.703125 36.273438 21.5625 36.421875 Z M 21.5625 36.421875 "/>
</g>
</svg>
