<svg version="1.2" xmlns="http://www.w3.org/2000/svg" viewBox="0 0 580 347" width="580" height="347">
	<title>Logo Worldlink</title>
	<style>
		.s0 { fill: #748386 } 
		.s1 { fill: #005F80 } 
		.s2 { fill: #f62121 } 
	</style>
	<g id="Background">
		<path id="Path 1" class="s0" d="m90 138c4.9 0 5 0.1 5.5 3.3 0.3 1.7 1.2 9.4 2 16.9 0.8 7.6 1.5 14.6 1.5 15.6 0 1.5 0.1 1.5 1.3 0.2 0.7-0.8 3.1-8.9 5.2-18 2.2-9.1 4.4-16.8 5-17.2 0.5-0.4 2.2-0.8 3.8-0.8 1.5 0 3.4 0.2 4.2 0.5 0.8 0.3 1.2 1 0.8 1.8-0.4 0.6-3.2 11.3-6.3 23.7-3 12.4-6.3 23.7-7.3 25.3-0.9 1.5-2.7 3-4 3.3-1.2 0.4-3 0.4-4 0-0.9-0.3-2.4-1.6-3.2-2.8-0.8-1.3-3.5-13.1-5.9-26.3-2.4-13.2-4.2-24.3-3.9-24.7 0.2-0.5 2.6-0.8 5.3-0.8zm49.4 0c2.2 0 4.3 0.2 4.6 0.4 0.3 0.3-1.4 11.4-3.7 24.8-3 17.3-4.8 25-6.1 26.8-1 1.4-3.1 2.6-4.5 2.8-1.7 0.1-3.6-0.6-5-2-1.8-1.8-2.8-4.9-4.6-14.3-1.2-6.6-2.5-13.3-2.7-15-0.3-1.7 0.3-6.3 1.3-10.3 1-4 2.1-7.2 2.6-7.2 0.4 0 0.9 0.6 1.1 1.3 0.1 0.6 1.4 6.8 2.6 13.7 1.3 6.9 2.8 13.1 3.4 13.7 0.8 0.9 1.6-3.3 3-15.5 1-9.2 2.3-17.3 2.8-17.9 0.6-0.7 2.9-1.3 5.2-1.3zm35.3 0c1.8 0 3.3 0.4 3.3 1 0 0.6-1.1 1.2-2.5 1.5-1.4 0.3-4.3 2.6-6.5 5.3-2.3 2.6-4.8 7-5.7 9.7-0.9 2.8-1.6 7.8-1.5 11.5 0.1 4.7 0.8 7.9 2.6 11.5 1.3 2.8 4.2 6.6 6.3 8.5 2.2 1.9 4.8 4 5.9 4.7 1.7 1.1 1.5 1.2-1.6 1.3-2 0-6.1-1.2-9.5-2.9-4.1-2-7-4.3-9.1-7.3-1.7-2.4-3.7-5.9-4.4-7.8-0.8-1.9-1.4-6.2-1.4-9.5 0-3.3 0.7-7.6 1.4-9.5 0.8-1.9 2.7-5.4 4.3-7.7 1.9-2.8 4.8-5.1 9-7.2 3.4-1.7 7.6-3.1 9.4-3.1zm53.8 0.3c4.2 0.2 7.2 1.1 9.9 2.8 2.7 1.6 4.6 3.8 5.9 6.9 1.4 3.1 1.8 5.6 1.3 8.3-0.3 2-1.3 5-2.1 6.7-0.8 1.7-3 3.9-4.7 5-2.1 1.3-5.1 2-12.8 2v-4.5c0-4.5 0-4.5 3.4-4.2 2.3 0.1 4.1-0.5 5.5-1.8 1.4-1.3 2.2-3.2 2.1-5.2 0-2.4-0.8-3.9-2.7-5.3-1.6-1.2-3.7-2.1-4.8-2.1-1.1 0.1-3.3 0.6-5 1.2-2.6 0.9-3.6 0.7-7.7-2-4.3-2.8-4.6-3.2-3.1-4.3 0.9-0.7 3.3-1.9 5.3-2.6 1.9-0.7 6.2-1.1 9.5-0.9zm32.3-0.3c0.9 0 3.2 0.9 8.2 4v40l-3.7 4c-2.1 2.2-4.4 4-5 4-1 0-1.3-5.8-1.3-26 0-24.1 0.1-26 1.8-26zm47.7 0.4c4.4 0.2 9.7 1.1 11.8 2 2 0.9 5.7 3.5 8.2 5.9 3.2 2.9 5.1 5.7 6.2 9.2 1.1 3.4 1.4 7.2 1.1 12-0.3 3.8-1.2 8.5-2.1 10.3-1 1.7-3.4 4.8-5.4 6.7-2.1 2-6.2 4.5-9 5.5-2.9 1.1-5.7 2-6.3 2-0.6 0-1-1.8-1-4 0-3.5 0.4-4.2 3.3-5.8 1.7-1 4.6-3.5 6.2-5.7 2.7-3.4 3-4.6 3-11 0-6.2-0.3-7.6-2.7-10.8-1.6-2-4-4.3-5.5-5.1-1.6-0.8-4.4-1.7-6.3-2-1.9-0.3-4.4-1.6-5.5-2.7-1.1-1.2-3.4-2.8-5-3.7-2.8-1.4-2.9-1.6-1-2.3 1.1-0.5 5.6-0.7 10-0.5zm39.3-0.4c0.9 0 3.2 0.9 8.2 4v40l-3.7 4c-2.1 2.2-4.4 4-5 4-1 0-1.3-5.8-1.3-26 0-24.1 0.1-26 1.8-26zm45.2 0v55h-12l-0.1-12.2c0-6.8 0-18.1 0.1-25.3 0.1-7.2 0.6-13.6 1.1-14.4 0.6-0.7 2-1.7 3.2-2.1 1.2-0.5 3.4-0.9 7.7-1zm18.6 0c1.3 0 3.8 0.7 5.4 1.5 2.4 1.2 4.3 4.2 16 28v9.8c0 5.8-0.4 9.7-1 9.7-0.6 0-4.8-7.9-9.5-17.5-4.7-9.6-8.9-17.5-9.5-17.5-0.6 0-0.8 1.6-0.5 3.8 0.2 2 0.7 9.1 1 15.7 0.3 6.6 0.8 14.1 1.5 21.5h-12l-0.1-49.8 3.1-2.6c1.8-1.4 4.3-2.6 5.6-2.6zm23.7-0.3l3.6 0.7c2 0.3 4.3 1.3 5.1 2.1 1.2 1.3 1.5 6 2 52.5h-11l0.2-27.6zm22.6 0.2c1.1 0 3.4 0.7 8 3v10c0 5.5 0.4 10 0.8 10.1 0.4 0 2.6-1.5 4.9-3.3 2.3-1.8 5.2-4.6 6.6-6.3 1.4-1.6 3.2-4.4 4.1-6.2 0.9-1.8 1.6-4.2 1.6-5.3 0-1.1 0.6-2 1.3-1.9 0.7 0 2.7 0.9 4.5 2 2.6 1.5 3.1 2.4 2.6 4.2-0.3 1.2-1.4 3.8-2.4 5.7-1 2-3.7 6.2-6.1 9.4-2.8 3.7-6.8 7.4-17.9 14.6v19h-10v-27.5c0-26.8 0.1-27.5 2-27.5zm-274.7 2.1c1-0.1 3 0.6 4.5 1.3 1.5 0.8 4.2 3 5.9 4.8 1.8 1.8 4.2 5.6 5.4 8.3 1.7 3.7 2.2 6.9 2.2 12-0.1 5.6-0.7 8.1-2.9 12.5-1.6 3.1-4.7 6.8-7.1 8.7-2.3 1.8-5.5 3.6-7 3.9-2.1 0.5-3.9-0.2-7.5-2.7-2.6-1.9-5-3.9-5.2-4.6-0.4-0.9 0.7-1.3 3.7-1.3 2.5 0 5.8-0.9 8.2-2.3 2.3-1.2 5-4 6.3-6.2 1.4-2.4 2.2-5.7 2.2-8.5 0.1-2.7-0.8-6.2-2.2-9-1.5-2.9-3.6-5.2-6.3-6.7-2.8-1.6-5.2-2.2-8.2-2-2.3 0.1-4.3 0-4.3-0.3 0-0.2 1-1.4 2.3-2.6 1.2-1.2 3.6-2.8 5.2-3.7 1.7-0.9 3.8-1.6 4.8-1.6zm112.7 1.9c0.6 0 3 1.5 9.5 6.6l0.5 44.4h-11v-12c0-8.9-0.3-12-1.2-12-1-0.1-1-0.2 0-0.5 0.9-0.4 1.2-4 1.2-13.5 0-8 0.4-13 1-13zm-84.7 4c0.7 0 2.8 1 8.2 4.6l0.5 42.4h-10v-23.5c0-18.1 0.3-23.5 1.3-23.5zm269 22.1c0.4-0.1 2.2 1.8 3.9 4.2 1.7 2.3 4.1 6.5 5.4 9.2 1.3 2.8 2.6 6.3 2.9 7.8 0.5 2.6 0.4 2.7-3.7 2.8-4.2 0-4.3-0.1-6.2-4.8-1.1-2.6-3.8-6.7-10.1-13.5l3.5-2.8c2-1.6 3.9-2.9 4.3-2.9zm-239.3 1c0.3-0.1 1.3 0.7 2.3 1.6 1.1 1.1 2.1 4.4 2.6 8.3 0.4 3.6 1.2 7.2 1.6 8 0.5 0.9 1.8 2.6 5 6.1h-5c-3.9 0-5.5-0.5-7.5-2.4-1.3-1.3-2.8-3.9-3.2-5.8-0.4-1.8-0.8-4.6-0.8-6.1 0-1.5-0.9-3.7-2-4.8-1.8-1.8-1.8-2-0.2-2 1 0 2.9-0.6 4.2-1.4 1.4-0.7 2.8-1.4 3-1.5zm30.5 14.1l15.5-0.2v10h-24.8l4.7-4.9zm87 0l15.5-0.2v10h-24.9l4.7-4.9z"/>
		<path id="Path 2" class="s1" d="m359.5 42.2c5.6-0.1 13.1 0.5 17 1.3 3.9 0.9 9.3 2.6 12 3.9 2.8 1.2 6.8 4.1 9 6.3 2.2 2.2 4.3 4.9 4.8 6.1 0.4 1.2 0.4 2.2 0 2.2-0.5 0-3-1.1-5.8-2.4-2.8-1.3-7.3-2.8-10-3.4-2.8-0.6-8.8-1.4-13.5-1.7-4.9-0.4-13.2-0.2-19.5 0.4-6.1 0.7-15.5 2.1-21 3.3-5.5 1.1-14.5 3.3-20 4.9-5.5 1.6-12.3 3.7-15 4.8-2.8 1-8.8 3.3-13.5 5.1-4.7 1.8-16.6 7.2-26.5 12.1-9.9 4.8-20.5 10.2-23.5 12-3 1.7-10.7 6.5-17 10.7-6.3 4.1-15.3 10.4-20 13.9-8.2 6.1-8.7 6.4-14.3 6.3-3.1 0-5.7-0.4-5.7-1 0-0.5 3.3-4 7.3-7.6 3.9-3.7 12.7-10.8 19.4-15.8 6.7-5 17.5-12.4 24-16.5 6.5-4 19.2-11 28.3-15.5 9.1-4.5 21.2-10 27-12.3 5.8-2.2 14.1-5.3 18.5-6.7 4.4-1.4 12.5-3.7 18-5 5.5-1.4 13.4-2.9 17.5-3.5 4.1-0.6 8.6-1.3 10-1.5 1.4-0.2 7-0.4 12.5-0.4zm-208 157.8c4.1 0 7.5 0.1 7.5 0.2 0 0.2-1.8 3.9-4 8.3-2.2 4.4-4.7 11.4-5.6 15.5-1.1 4.8-1.5 9.5-1.1 13 0.3 3 0.9 6.4 1.2 7.5 0.4 1.3-0.7 0.5-3.2-2.1-2.2-2.4-4.5-6.3-5.6-9.5-0.9-3-1.7-7.9-1.7-10.9 0-3 0.9-8.9 2.1-13 1.1-4.1 2.3-7.8 2.5-8.3 0.3-0.4 3.9-0.7 7.9-0.7z"/>
		<path id="Path 3" class="s2" d="m392 63.4c15.4 0.3 19.7 0.7 26 2.6 4.1 1.2 9.7 3.4 12.4 4.8 2.7 1.5 6.7 4.3 8.9 6.2 2.2 1.9 5.1 5.8 6.5 8.5 1.8 3.6 2.6 7.2 3 12.5 0.2 4.1-0.1 10-0.8 13-0.6 3-2.7 8.7-7.9 19.5l0.6-7.5c0.4-5.5 0.1-9-1.1-13-0.9-3-2.5-6.8-3.5-8.5-1.1-1.7-3.9-4.8-6.2-6.9-2.4-2.2-7.1-5.2-10.4-6.7-3.3-1.5-10.1-3.5-15-4.4-7.2-1.4-12.4-1.6-26.5-1.2-10.9 0.4-21.4 1.3-28 2.5-5.8 1.1-13.4 2.7-17 3.6-3.6 0.9-11.4 3.3-17.5 5.3-6.1 1.9-16.4 5.7-23 8.3-6.6 2.6-18.1 7.8-25.5 11.5-7.4 3.7-16.5 8.5-27 14.5h-13c-7.2 0-13.2-0.3-13.4-0.7-0.3-0.5 4.8-4.2 11.2-8.3 6.4-4.1 13.9-8.7 16.7-10.3 2.7-1.5 11.1-5.8 18.5-9.6 7.4-3.8 19.4-9.3 26.5-12.4 7.1-3 19.3-7.6 27-10 7.7-2.5 19.6-5.9 26.5-7.5 6.9-1.7 16.6-3.5 21.5-4.2 4.9-0.6 9.7-1.3 10.5-1.5 0.8-0.2 9.8-0.2 20-0.1zm-222.3 151.6c0.5 0 0.7 2.6 0.5 5.7-0.2 3.5 0.2 7.4 1.2 9.8 0.8 2.2 3.2 5.7 5.3 7.8 2.1 2.1 5.5 4.7 7.6 5.8 2 1 6.7 2.6 10.5 3.5 4.3 1 11 1.6 18.7 1.6 6.6 0 15.8-0.7 20.5-1.6 4.7-0.8 9.9-1.8 11.5-2.1 1.7-0.4 6.8-1.8 11.5-3.1 4.7-1.3 13.2-4.2 29.5-10.5l25 0.6-8.5 4.4c-4.7 2.5-12.1 6-16.5 7.8-4.4 1.9-12.9 5.1-19 7.3-6 2.1-15.7 5-21.5 6.3-5.8 1.4-12.3 2.8-14.5 3.2-2.2 0.4-8.5 1-14 1.5-5.5 0.4-14 0.4-19-0.1-4.9-0.4-11.9-1.8-15.4-3.1-3.7-1.3-8.3-4-10.9-6.3-2.5-2.2-5.4-5.8-6.3-8-1.2-2.5-1.9-6.5-1.9-10.5 0-3.6 0.6-8.3 1.4-10.5 0.8-2.2 1.9-5.2 2.5-6.7 0.6-1.6 1.4-2.8 1.8-2.8z"/>
	</g>
</svg>