<?xml version="1.0" encoding="UTF-8"?>
<svg xmlns="http://www.w3.org/2000/svg" xmlns:xlink="http://www.w3.org/1999/xlink" width="30px" height="30px" viewBox="0 0 30 30" version="1.1">
<g id="surface1">
<path style=" stroke:none;fill-rule:nonzero;fill:rgb(0%,0%,0%);fill-opacity:1;" d="M 5.742188 0.0859375 C 3.84375 0.476562 2.359375 1.976562 2.015625 3.867188 C 1.898438 4.511719 1.898438 25.484375 2.015625 26.132812 C 2.191406 27.105469 2.671875 27.984375 3.414062 28.695312 C 4.136719 29.375 4.96875 29.789062 5.917969 29.9375 C 6.242188 29.988281 8.238281 30 13.335938 29.988281 L 20.3125 29.96875 L 20.601562 29.796875 C 20.777344 29.683594 20.953125 29.507812 21.0625 29.332031 C 21.222656 29.074219 21.242188 28.992188 21.242188 28.59375 C 21.242188 28.195312 21.222656 28.113281 21.0625 27.855469 C 20.953125 27.679688 20.777344 27.503906 20.601562 27.390625 L 20.3125 27.21875 L 6.125 27.15625 L 5.820312 27 C 5.40625 26.78125 5.117188 26.476562 4.929688 26.078125 L 4.773438 25.75 L 4.773438 4.25 L 4.929688 3.921875 C 5.117188 3.523438 5.40625 3.21875 5.820312 3 L 6.125 2.84375 L 20.3125 2.78125 L 20.601562 2.609375 C 20.777344 2.496094 20.953125 2.320312 21.0625 2.144531 C 21.222656 1.886719 21.242188 1.804688 21.242188 1.40625 C 21.242188 1.007812 21.222656 0.925781 21.0625 0.667969 C 20.953125 0.492188 20.777344 0.316406 20.601562 0.203125 L 20.3125 0.03125 L 13.21875 0.015625 C 7.554688 0.0117188 6.046875 0.0234375 5.742188 0.0859375 Z M 5.742188 0.0859375 "/>
<path style=" stroke:none;fill-rule:nonzero;fill:rgb(0%,0%,0%);fill-opacity:1;" d="M 19.359375 7.054688 C 18.84375 7.296875 18.574219 7.746094 18.574219 8.355469 C 18.578125 8.90625 18.664062 9.015625 21.023438 11.378906 L 23.226562 13.59375 L 17.613281 13.59375 C 13.371094 13.59375 11.9375 13.609375 11.753906 13.664062 C 11.25 13.816406 10.78125 14.460938 10.78125 15 C 10.78125 15.539062 11.25 16.183594 11.753906 16.335938 C 11.9375 16.390625 13.371094 16.40625 17.613281 16.40625 L 23.226562 16.40625 L 21.023438 18.617188 C 19.816406 19.835938 18.773438 20.921875 18.714844 21.035156 C 18.640625 21.179688 18.609375 21.367188 18.601562 21.6875 C 18.601562 22.078125 18.621094 22.160156 18.78125 22.414062 C 19.109375 22.945312 19.75 23.191406 20.375 23.027344 C 20.636719 22.957031 20.898438 22.710938 24.21875 19.398438 C 26.304688 17.328125 27.832031 15.75 27.90625 15.617188 C 28.085938 15.292969 28.078125 14.707031 27.90625 14.382812 C 27.832031 14.25 26.289062 12.667969 24.21875 10.59375 C 20.367188 6.757812 20.554688 6.914062 19.921875 6.914062 C 19.769531 6.914062 19.535156 6.972656 19.359375 7.054688 Z M 19.359375 7.054688 "/>
</g>
</svg>
