<?xml version="1.0" encoding="UTF-8"?>
<svg xmlns="http://www.w3.org/2000/svg" xmlns:xlink="http://www.w3.org/1999/xlink" width="35px" height="35px" viewBox="0 0 35 35" version="1.1">
<g id="surface1">
<path style=" stroke:none;fill-rule:nonzero;fill:rgb(0%,0%,0%);fill-opacity:1;" d="M 13.433594 0.046875 C 9.453125 0.398438 5.953125 2.214844 3.375 5.285156 C -1.023438 10.519531 -1.113281 18.328125 3.179688 23.6875 C 5.960938 27.164062 10.164062 29.1875 14.609375 29.1875 C 17.179688 29.1875 19.890625 28.453125 22.03125 27.160156 L 22.4375 26.914062 L 26.234375 30.707031 C 29.765625 34.21875 30.078125 34.515625 30.476562 34.6875 C 31.734375 35.238281 33.105469 34.992188 34.050781 34.050781 C 35 33.101562 35.238281 31.746094 34.6875 30.476562 C 34.507812 30.078125 34.207031 29.757812 30.707031 26.242188 L 26.921875 22.4375 L 27.195312 21.96875 C 28.09375 20.414062 28.664062 18.867188 29 17.035156 C 29.195312 15.960938 29.210938 13.398438 29.03125 12.339844 C 28.472656 9.125 27.0625 6.40625 24.808594 4.191406 C 23.609375 3.015625 22.546875 2.257812 21.019531 1.503906 C 18.722656 0.363281 15.933594 -0.171875 13.433594 0.046875 Z M 16.644531 1.53125 C 20.808594 2.179688 24.425781 4.796875 26.359375 8.558594 C 27.417969 10.628906 27.871094 12.632812 27.800781 14.96875 C 27.734375 17.460938 27.164062 19.34375 25.804688 21.628906 C 25.347656 22.402344 25.304688 22.53125 25.4375 22.785156 C 25.476562 22.867188 27.273438 24.703125 29.429688 26.867188 C 32.09375 29.546875 33.378906 30.882812 33.460938 31.070312 C 34.125 32.511719 32.730469 34.03125 31.199219 33.523438 C 30.898438 33.421875 30.488281 33.03125 26.898438 29.460938 C 24.71875 27.289062 22.867188 25.476562 22.785156 25.4375 C 22.53125 25.304688 22.402344 25.347656 21.628906 25.8125 C 19.179688 27.273438 16.859375 27.898438 14.183594 27.800781 C 11.785156 27.710938 9.742188 27.117188 7.765625 25.921875 C 6.851562 25.367188 6.132812 24.800781 5.257812 23.933594 C 3.1875 21.875 1.929688 19.34375 1.496094 16.371094 C 1.386719 15.605469 1.382812 13.546875 1.496094 12.816406 C 2.105469 8.796875 4.300781 5.433594 7.675781 3.335938 C 9.441406 2.234375 11.117188 1.6875 13.601562 1.40625 C 14.054688 1.351562 16.03125 1.4375 16.644531 1.53125 Z M 16.644531 1.53125 "/>
<path style=" stroke:none;fill-rule:nonzero;fill:rgb(0%,0%,0%);fill-opacity:1;" d="M 13.945312 3.972656 C 13.414062 4.183594 13.316406 4.777344 13.765625 5.140625 C 14.101562 5.414062 14.695312 5.195312 14.804688 4.757812 C 14.921875 4.28125 14.398438 3.792969 13.945312 3.972656 Z M 13.945312 3.972656 "/>
<path style=" stroke:none;fill-rule:nonzero;fill:rgb(0%,0%,0%);fill-opacity:1;" d="M 16.496094 4.300781 C 16.261719 4.449219 16.160156 4.730469 16.234375 5.058594 C 16.289062 5.3125 16.46875 5.441406 16.953125 5.578125 C 18.667969 6.054688 20.125 6.925781 21.328125 8.175781 C 24.472656 11.449219 24.773438 16.507812 22.039062 20.199219 C 21.617188 20.773438 20.699219 21.683594 20.132812 22.101562 C 16.453125 24.773438 11.414062 24.445312 8.175781 21.328125 C 5.085938 18.355469 4.394531 13.691406 6.5 10.015625 C 7.582031 8.121094 9.160156 6.761719 11.238281 5.921875 C 11.847656 5.671875 11.941406 5.613281 12.046875 5.398438 C 12.277344 4.929688 11.976562 4.445312 11.464844 4.445312 C 10.976562 4.445312 9.40625 5.1875 8.421875 5.878906 C 7.328125 6.644531 6.054688 8.054688 5.351562 9.261719 C 3.855469 11.847656 3.527344 15 4.449219 17.898438 C 6.351562 23.835938 13.0625 26.886719 18.804688 24.410156 C 23.53125 22.375 26.121094 17.316406 25.011719 12.277344 C 24.210938 8.625 21.519531 5.652344 17.917969 4.449219 C 17.042969 4.15625 16.769531 4.128906 16.496094 4.300781 Z M 16.496094 4.300781 "/>
<path style=" stroke:none;fill-rule:nonzero;fill:rgb(0%,0%,0%);fill-opacity:1;" d="M 10.820312 10.308594 C 10.628906 10.335938 10.34375 10.625 10.308594 10.820312 C 10.246094 11.195312 10.34375 11.320312 11.984375 12.976562 L 13.632812 14.628906 L 11.976562 16.289062 C 11.027344 17.246094 10.320312 18.007812 10.316406 18.082031 C 10.289062 18.5 10.4375 18.757812 10.765625 18.867188 C 10.957031 18.929688 11.046875 18.921875 11.226562 18.839844 C 11.347656 18.777344 12.15625 18.027344 13.023438 17.15625 L 14.585938 15.585938 L 16.234375 17.21875 C 17.984375 18.957031 18.066406 19.015625 18.511719 18.828125 C 18.773438 18.71875 18.941406 18.390625 18.886719 18.082031 C 18.859375 17.929688 18.4375 17.460938 17.21875 16.234375 L 15.585938 14.585938 L 17.15625 13.023438 C 18.027344 12.15625 18.777344 11.347656 18.839844 11.226562 C 18.921875 11.046875 18.929688 10.957031 18.867188 10.765625 C 18.757812 10.4375 18.5 10.289062 18.082031 10.316406 C 18.007812 10.320312 17.246094 11.027344 16.289062 11.976562 L 14.628906 13.632812 L 12.976562 11.992188 C 11.335938 10.355469 11.195312 10.253906 10.820312 10.308594 Z M 10.820312 10.308594 "/>
</g>
</svg>
