<?xml version="1.0" encoding="UTF-8"?>
<svg xmlns="http://www.w3.org/2000/svg" xmlns:xlink="http://www.w3.org/1999/xlink" width="40px" height="40px" viewBox="0 0 40 40" version="1.1">
<g id="surface1">
<path style=" stroke:none;fill-rule:nonzero;fill:rgb(0%,0%,0%);fill-opacity:1;" d="M 9.375 5.21875 C 7.976562 5.28125 6.820312 5.34375 6.796875 5.359375 C 6.78125 5.382812 7.867188 6.507812 9.21875 7.875 C 10.570312 9.234375 12.601562 11.289062 13.734375 12.429688 L 15.796875 14.507812 L 12.90625 15.875 L 10.015625 17.25 L 7.0625 16.125 C 5.429688 15.507812 4.070312 15 4.023438 15 C 3.820312 15 0.015625 16.84375 0.0703125 16.914062 C 0.101562 16.953125 0.914062 17.96875 1.875 19.164062 C 3.382812 21.039062 3.609375 21.359375 3.53125 21.46875 C 3.0625 22.109375 3.007812 22.890625 3.390625 23.390625 C 3.671875 23.765625 4.289062 24.109375 4.960938 24.265625 C 6.875 24.703125 10.726562 24.265625 13.375 23.3125 C 14.09375 23.054688 37.171875 12.296875 37.96875 11.851562 C 38.3125 11.65625 38.796875 11.28125 39.148438 10.9375 C 39.671875 10.429688 39.765625 10.289062 39.882812 9.890625 C 40.210938 8.765625 39.632812 7.835938 38.164062 7.132812 C 37.28125 6.71875 36.632812 6.554688 35.570312 6.507812 C 34.523438 6.460938 33.835938 6.539062 32.695312 6.835938 C 31.742188 7.085938 31.03125 7.382812 27.367188 9.101562 L 24.234375 10.5625 L 18.757812 7.820312 L 13.289062 5.078125 L 12.601562 5.085938 C 12.226562 5.09375 10.773438 5.148438 9.375 5.21875 Z M 18.546875 9.5625 L 24.179688 12.398438 L 27.851562 10.6875 C 29.875 9.75 31.859375 8.851562 32.265625 8.695312 C 34.164062 7.984375 36.015625 7.9375 37.375 8.578125 C 37.898438 8.828125 38.359375 9.179688 38.359375 9.335938 C 38.359375 9.507812 37.765625 10.054688 37.21875 10.375 C 36.601562 10.742188 13.6875 21.429688 12.84375 21.75 C 10.945312 22.460938 7.617188 22.945312 5.984375 22.75 C 5.578125 22.695312 5.148438 22.617188 5.023438 22.570312 L 4.804688 22.484375 L 5.335938 21.992188 L 5.859375 21.5 L 4.28125 19.53125 C 3.40625 18.445312 2.679688 17.53125 2.671875 17.492188 C 2.640625 17.421875 3.921875 16.796875 4.101562 16.796875 C 4.15625 16.796875 5.523438 17.304688 7.148438 17.921875 L 10.09375 19.039062 L 13.070312 17.625 C 14.710938 16.84375 16.609375 15.945312 17.289062 15.625 C 17.960938 15.304688 18.515625 15.023438 18.515625 14.992188 C 18.515625 14.960938 16.71875 13.117188 14.523438 10.890625 L 10.523438 6.835938 L 11.296875 6.789062 C 13.070312 6.695312 12.210938 6.367188 18.546875 9.5625 Z M 18.546875 9.5625 "/>
<path style=" stroke:none;fill-rule:nonzero;fill:rgb(0%,0%,0%);fill-opacity:1;" d="M 1.328125 34.101562 L 1.328125 34.921875 L 39.140625 34.921875 L 39.140625 33.28125 L 1.328125 33.28125 Z M 1.328125 34.101562 "/>
</g>
</svg>
