<?xml version="1.0" encoding="UTF-8"?>
<svg xmlns="http://www.w3.org/2000/svg" xmlns:xlink="http://www.w3.org/1999/xlink" width="30px" height="30px" viewBox="0 0 30 30" version="1.1">
<g id="surface1">
<path style=" stroke:none;fill-rule:nonzero;fill:rgb(0%,0%,0%);fill-opacity:1;" d="M 14.382812 0.0820312 C 13.898438 0.199219 13.53125 0.410156 13.148438 0.785156 C 12.765625 1.171875 12.53125 1.585938 12.429688 2.097656 C 12.382812 2.3125 12.363281 3.949219 12.363281 7.382812 L 12.363281 12.363281 L 7.382812 12.363281 C 3.949219 12.363281 2.3125 12.382812 2.097656 12.429688 C 1.59375 12.53125 1.171875 12.765625 0.785156 13.148438 C -0.25 14.191406 -0.25 15.8125 0.785156 16.84375 C 1.171875 17.226562 1.59375 17.460938 2.097656 17.570312 C 2.3125 17.617188 3.898438 17.636719 7.382812 17.636719 L 12.363281 17.636719 L 12.363281 22.617188 C 12.363281 26.050781 12.382812 27.6875 12.429688 27.902344 C 12.53125 28.414062 12.765625 28.828125 13.148438 29.210938 C 14.195312 30.25 15.8125 30.25 16.84375 29.214844 C 17.226562 28.828125 17.460938 28.40625 17.570312 27.902344 C 17.617188 27.6875 17.636719 26.101562 17.636719 22.617188 L 17.636719 17.636719 L 22.617188 17.636719 C 26.050781 17.636719 27.6875 17.617188 27.902344 17.570312 C 28.414062 17.46875 28.828125 17.234375 29.210938 16.851562 C 30.25 15.804688 30.25 14.191406 29.214844 13.148438 C 28.828125 12.761719 28.371094 12.515625 27.882812 12.421875 C 27.703125 12.386719 25.601562 12.363281 22.609375 12.363281 L 17.636719 12.363281 L 17.636719 7.382812 C 17.636719 3.949219 17.617188 2.3125 17.570312 2.097656 C 17.46875 1.59375 17.234375 1.171875 16.851562 0.785156 C 16.183594 0.117188 15.289062 -0.140625 14.382812 0.0820312 Z M 14.382812 0.0820312 "/>
</g>
</svg>
