<?xml version="1.0" standalone="no"?>
<!DOCTYPE svg PUBLIC "-//W3C//DTD SVG 20010904//EN"
 "http://www.w3.org/TR/2001/REC-SVG-20010904/DTD/svg10.dtd">
<svg version="1.0" xmlns="http://www.w3.org/2000/svg"
 width="20pt" height="20pt" viewBox="0 0 512.000000 512.000000"
 preserveAspectRatio="xMidYMid meet">

<g transform="translate(0.000000,512.000000) scale(0.100000,-0.100000)"
fill="#DEB841" stroke="none">
<path d="M2350 4650 c-717 -75 -1355 -521 -1665 -1162 -39 -79 -46 -104 -41
-131 9 -46 54 -87 102 -93 65 -8 95 19 158 145 235 469 672 821 1181 954 289
76 565 83 857 23 513 -107 956 -426 1225 -884 68 -115 119 -231 166 -378 33
-101 77 -307 77 -358 0 -14 -39 19 -138 116 -152 150 -176 163 -245 135 -42
-18 -67 -60 -67 -114 0 -35 12 -50 253 -291 138 -139 265 -260 281 -269 64
-34 80 -22 349 245 137 136 255 259 263 274 49 94 -56 204 -149 157 -12 -6
-86 -75 -164 -152 -93 -92 -144 -136 -147 -126 -2 8 -9 59 -16 114 -15 123
-66 328 -115 455 -269 703 -896 1210 -1640 1325 -121 19 -408 27 -525 15z"/>
<path d="M2643 3489 c-151 -14 -314 -73 -441 -161 -114 -79 -249 -237 -308
-360 -17 -37 -19 -38 -73 -38 -121 0 -176 -38 -176 -121 0 -41 5 -53 32 -80
24 -25 42 -33 81 -37 l49 -4 0 -124 0 -124 -29 0 c-38 0 -88 -22 -113 -50 -14
-15 -20 -36 -20 -70 0 -81 55 -120 168 -120 63 0 65 -1 78 -32 26 -64 128
-204 196 -269 177 -171 401 -263 643 -262 213 0 397 78 541 230 79 83 87 135
31 195 -27 29 -77 44 -111 33 -11 -3 -59 -40 -107 -81 -48 -41 -117 -89 -153
-107 -64 -31 -68 -32 -201 -32 -122 1 -143 3 -215 29 -137 48 -265 141 -343
250 l-33 46 223 0 c256 0 279 5 312 74 17 36 18 43 5 79 -8 22 -27 50 -42 61
-27 20 -43 21 -305 24 -200 2 -279 7 -284 15 -9 14 -11 198 -2 221 5 14 39 16
273 16 304 0 321 4 355 74 17 36 18 43 5 79 -8 22 -27 50 -42 61 -27 20 -44
21 -258 24 -126 2 -229 8 -229 12 0 17 102 131 153 171 196 155 487 195 665
92 24 -14 79 -56 123 -93 44 -38 89 -72 100 -75 73 -24 159 54 145 131 -15 75
-186 219 -325 273 -125 48 -233 62 -368 50z"/>
<path d="M540 2789 c-30 -12 -505 -483 -526 -521 -49 -93 56 -204 149 -157 12
6 86 74 164 152 161 159 143 160 164 -3 43 -348 208 -725 447 -1021 87 -108
282 -293 393 -371 489 -348 1081 -474 1658 -352 490 102 944 391 1240 789 131
176 244 382 244 447 0 68 -45 111 -115 111 -58 0 -82 -24 -142 -140 -194 -377
-485 -660 -866 -842 -585 -279 -1285 -226 -1827 138 -429 289 -708 721 -799
1236 -25 145 -29 145 119 -2 72 -72 142 -136 154 -142 95 -48 199 62 149 157
-22 41 -497 510 -529 522 -34 12 -44 12 -77 -1z"/>
</g>
</svg>
