<?xml version="1.0" encoding="UTF-8"?>
<svg xmlns="http://www.w3.org/2000/svg" xmlns:xlink="http://www.w3.org/1999/xlink" width="30px" height="30px" viewBox="0 0 30 30" version="1.1">
<g id="surface1">
<path style=" stroke:none;fill-rule:nonzero;fill:rgb(0%,0%,0%);fill-opacity:1;" d="M 13.679688 0.0859375 C 12.082031 0.335938 10.652344 1.09375 9.53125 2.285156 C 8.304688 3.59375 7.664062 5.101562 7.578125 6.914062 C 7.453125 9.445312 8.695312 11.867188 10.839844 13.265625 C 11.894531 13.957031 12.90625 14.308594 14.140625 14.40625 C 16.417969 14.585938 18.363281 13.867188 19.933594 12.269531 C 21.179688 11.003906 21.8125 9.621094 21.96875 7.859375 C 22.179688 5.5 21.289062 3.3125 19.511719 1.773438 C 18.363281 0.789062 17.308594 0.296875 15.851562 0.0859375 C 15.148438 -0.0117188 14.328125 -0.015625 13.679688 0.0859375 Z M 13.679688 0.0859375 "/>
<path style=" stroke:none;fill-rule:nonzero;fill:rgb(0%,0%,0%);fill-opacity:1;" d="M 8.359375 14.539062 C 5.710938 14.820312 3.875 16.71875 3.015625 20.070312 C 2.449219 22.300781 2.304688 24.984375 2.664062 26.453125 C 2.964844 27.632812 3.945312 28.828125 5.074219 29.402344 C 5.585938 29.660156 6.316406 29.871094 6.929688 29.941406 C 7.296875 29.988281 10.0625 30 15.351562 29.988281 L 23.234375 29.96875 L 23.730469 29.828125 C 25.582031 29.328125 26.847656 28.085938 27.3125 26.335938 C 27.550781 25.429688 27.523438 23.261719 27.242188 21.550781 C 26.625 17.742188 25.066406 15.457031 22.601562 14.742188 C 22.039062 14.578125 21.03125 14.453125 20.730469 14.515625 C 20.445312 14.566406 20.046875 14.777344 19.140625 15.359375 C 18.179688 15.976562 18.046875 16.046875 17.328125 16.320312 C 16.492188 16.628906 15.808594 16.765625 15.007812 16.765625 C 14.1875 16.765625 13.554688 16.648438 12.71875 16.351562 C 11.9375 16.070312 11.898438 16.054688 10.671875 15.273438 C 10.023438 14.867188 9.546875 14.601562 9.359375 14.546875 C 9.03125 14.46875 9.03125 14.46875 8.359375 14.539062 Z M 8.359375 14.539062 "/>
</g>
</svg>
