<?xml version="1.0" encoding="UTF-8"?>
<svg xmlns="http://www.w3.org/2000/svg" xmlns:xlink="http://www.w3.org/1999/xlink" width="20px" height="20px" viewBox="0 0 20 20" version="1.1">
<g id="surface1">
<path style=" stroke:none;fill-rule:nonzero;fill:rgb(0%,0%,0%);fill-opacity:1;" d="M 8.027344 0.472656 C 4.847656 0.675781 2.027344 2.808594 0.90625 5.863281 C 0.375 7.304688 0.292969 9.082031 0.683594 10.617188 C 1.445312 13.636719 3.933594 16.011719 6.96875 16.621094 C 9.277344 17.082031 11.699219 16.53125 13.523438 15.132812 C 13.644531 15.039062 13.757812 14.960938 13.777344 14.960938 C 13.792969 14.960938 14.800781 15.957031 16.015625 17.171875 C 17.230469 18.386719 18.269531 19.40625 18.324219 19.433594 C 18.636719 19.601562 19.074219 19.578125 19.304688 19.382812 C 19.457031 19.253906 19.570312 19.011719 19.570312 18.808594 C 19.570312 18.464844 19.53125 18.421875 17.160156 16.050781 L 14.910156 13.796875 L 15.085938 13.570312 C 16.15625 12.179688 16.757812 10.40625 16.757812 8.648438 C 16.757812 7.960938 16.707031 7.46875 16.574219 6.875 C 16.234375 5.335938 15.484375 3.96875 14.378906 2.859375 C 12.679688 1.164062 10.433594 0.320312 8.027344 0.472656 Z M 9.65625 2.144531 C 11.789062 2.511719 13.535156 3.804688 14.476562 5.707031 C 15.792969 8.371094 15.164062 11.578125 12.9375 13.535156 C 11.609375 14.703125 9.875 15.289062 8.121094 15.15625 C 5.769531 14.976562 3.773438 13.628906 2.699219 11.492188 C 2.515625 11.128906 2.253906 10.367188 2.171875 9.960938 C 1.921875 8.730469 2.03125 7.425781 2.480469 6.246094 C 3.210938 4.339844 4.917969 2.800781 6.882812 2.28125 C 7.722656 2.058594 8.835938 2.003906 9.65625 2.144531 Z M 9.65625 2.144531 "/>
<path style=" stroke:none;fill-rule:nonzero;fill:rgb(0%,0%,0%);fill-opacity:1;" d="M 8.261719 5.175781 C 8.082031 5.273438 7.964844 5.394531 7.886719 5.566406 C 7.820312 5.707031 7.8125 5.835938 7.8125 6.765625 L 7.8125 7.8125 L 6.808594 7.8125 C 6.226562 7.8125 5.738281 7.832031 5.652344 7.855469 C 5.460938 7.90625 5.242188 8.101562 5.152344 8.300781 C 4.96875 8.699219 5.171875 9.175781 5.59375 9.351562 C 5.714844 9.402344 5.925781 9.414062 6.777344 9.414062 L 7.8125 9.414062 L 7.8125 10.472656 C 7.8125 11.621094 7.820312 11.679688 8.039062 11.898438 C 8.203125 12.058594 8.359375 12.121094 8.601562 12.121094 C 8.90625 12.121094 9.15625 11.972656 9.292969 11.699219 C 9.394531 11.507812 9.394531 11.492188 9.40625 10.460938 L 9.421875 9.414062 L 11.46875 9.414062 L 11.675781 9.3125 C 12.042969 9.128906 12.199219 8.726562 12.054688 8.339844 C 11.972656 8.132812 11.738281 7.910156 11.535156 7.855469 C 11.449219 7.832031 10.976562 7.8125 10.402344 7.8125 L 9.414062 7.8125 L 9.414062 6.898438 C 9.414062 6.398438 9.394531 5.894531 9.375 5.777344 C 9.296875 5.363281 9.046875 5.144531 8.636719 5.125 C 8.453125 5.117188 8.34375 5.132812 8.261719 5.175781 Z M 8.261719 5.175781 "/>
</g>
</svg>
